<svg width="24" height="24" viewBox="0 0 24 24" fill="none" xmlns="http://www.w3.org/2000/svg">
<path d="M10 16.1856H4.54C4.8424 15.1104 6.1696 14.4384 7.2448 13.632C8.992 12.372 9.8824 11.3472 9.8824 9.44876C9.8824 7.07996 8.1352 5.87036 6.136 5.87036C3.868 5.87036 2.104 7.41596 2.104 9.71756H3.9688C3.9856 8.45756 4.9264 7.68476 6.1192 7.68476C7.2952 7.68476 8.0176 8.44076 8.0176 9.49916C8.0176 10.7088 7.2448 11.3808 6.0184 12.2712C4.2712 13.5648 2.104 14.7072 2.104 17.328V18H10V16.1856Z" fill="#18141F"/>
<path d="M12.0607 18H15.7231C19.2679 18 21.9727 15.4128 21.9727 12.036C21.9727 8.65922 19.2679 6.07202 15.7231 6.07202H12.0607V18ZM14.0263 16.1688V7.90322H15.7231C18.2767 7.90322 19.9735 9.70082 19.9735 12.036C19.9735 14.3712 18.2767 16.1688 15.7231 16.1688H14.0263Z" fill="#18141F"/>
</svg>
