<svg width="24" height="24" viewBox="0 0 24 24" fill="none" xmlns="http://www.w3.org/2000/svg">
<g clip-path="url(#clip0)">
<path d="M1.5 9.5C2.45282 11.5 5.45038 16 11.9753 16C18.5002 16 21.4978 11 22.5 9.5" stroke="#061A3C" stroke-width="2"/>
<path d="M0 6L5 10L1.99994 9.99997L0 12V6Z" fill="#061A3C"/>
<path d="M24 6L19 10L22.0001 9.99997L24 12V6Z" fill="#061A3C"/>
<path fill-rule="evenodd" clip-rule="evenodd" d="M12 1.94592L19 4.27926V9.00002H17V5.72078L12 4.05411L7 5.72078V9.00002H5V4.27926L12 1.94592Z" fill="#061A3C"/>
<path fill-rule="evenodd" clip-rule="evenodd" d="M11.9999 21.5474L19 19V16.7734L11.9999 19.3587L5 16.7734V19L11.9999 21.5474Z" fill="#061A3C"/>
</g>
<defs>
<clipPath id="clip0">
<path d="M0 0H24V24H0V0Z" fill="white"/>
</clipPath>
</defs>
</svg>
