<svg width="24" height="24" viewBox="0 0 24 24" fill="none" xmlns="http://www.w3.org/2000/svg">
<path fill-rule="evenodd" clip-rule="evenodd" d="M11 1H14.0001L13.2223 8H17H19V10V14V14.4V15.5V16.4H18.9645C18.9254 16.7278 18.8548 17.0434 18.7564 17.3422L22.7071 21.2929L21.2929 22.7071L1.29289 2.70711L2.70711 1.29289L9.41421 8H11.0001L11 1ZM12.4142 11L17 15.5858V15.5V14V11H12.4142ZM13.2324 18L15.2324 20H12.0001H9H5.24364H5H2.84074H1L2.6138 19.3948C3.29465 19.1395 3.8713 18.6437 4.28708 18C4.73824 17.3015 5 16.4288 5 15.5V14V10V9.76765L7 11.7676V14V15.5C7 16.3534 6.83704 17.2097 6.52305 18H9H12.0001H13.2324Z" fill="#18141F"/>
</svg>
