<svg width="24" height="24" viewBox="0 0 24 24" fill="none" xmlns="http://www.w3.org/2000/svg">
<path fill-rule="evenodd" clip-rule="evenodd" d="M3 15L3 13L5 13L7 13L17 13L17 15L5 15L3 15ZM17 11L7 11L7 9L18 9L20 9L21 9L21 11L19 11L17 11ZM20 7L21 7L23 7L23 9L23 11L23 13L21 13L19 13L19 15L21 15L21 17L21 19L21 21L19 21L5 21L3 21L3 19L3 17L1 17L1 15L1 13L1 11L3 11L5 11L5 9L4 9L2 9L2 7L2 5L2 3L4 3L18 3L20 3L20 5L20 7ZM19 17L17 17L5 17L5 19L19 19L19 17ZM4 7L4 5L18 5L18 7L7 7L5 7L4 7Z" fill="#18141F"/>
</svg>
