<svg width="24" height="24" viewBox="0 0 24 24" fill="none" xmlns="http://www.w3.org/2000/svg">
<path fill-rule="evenodd" clip-rule="evenodd" d="M15.0001 11.5L18.7069 8.70701L17.2926 7.29285L13.2928 11.2929L14 13L19 12.9999L19 10.9999L15.0001 11.5ZM5.29313 8.70718L9.00013 11.5L5 11.0001L5 13.0001L10.0002 13.0001L10.7073 11.293L6.70734 7.29296L5.29313 8.70718ZM5 17H19V15H5V17Z" fill="#061A3C"/>
<path fill-rule="evenodd" clip-rule="evenodd" d="M8.91465 2C8.70876 1.41749 8.15328 1.00013 7.50029 1C7.50039 1 7.5002 1 7.50029 1C6.67187 1 6 1.67157 6 2.5C6 2.67532 6.03008 2.84361 6.08535 3C6.29127 3.5826 6.84689 4 7.5 4C7.4999 4 7.5001 4 7.5 4C8.15298 3.99987 8.70876 3.58251 8.91465 3H11V5H3C2.44772 5 2 5.44772 2 6V19C2 19.5523 2.44772 20 3 20H21C21.5523 20 22 19.5523 22 19V6C22 5.44772 21.5523 5 21 5H13V3H15.0854C15.2912 3.58251 15.8467 3.99987 16.4997 4C16.4996 4 16.4998 4 16.4997 4C17.1528 4 17.7087 3.5826 17.9146 3C17.9699 2.84361 18 2.67532 18 2.5C18 1.67157 17.3284 1 16.5 1C16.5001 1 16.4999 1 16.5 1C15.847 1.00013 15.2912 1.41749 15.0854 2H8.91465ZM4 7V18H20V7H4Z" fill="#061A3C"/>
</svg>
