<svg width="24" height="24" viewBox="0 0 24 24" fill="none" xmlns="http://www.w3.org/2000/svg">
<path fill-rule="evenodd" clip-rule="evenodd" d="M7.5 5C8.15311 5 8.70873 4.5826 8.91465 4H11V6H3C2.44772 6 2 6.44772 2 7V19C2 19.5523 2.44772 20 3 20H21C21.5523 20 22 19.5523 22 19V7C22 6.44772 21.5523 6 21 6H13V4H15.0854C15.2913 4.5826 15.8469 5 16.5 5C17.3284 5 18 4.32843 18 3.5C18 2.67157 17.3284 2 16.5 2C15.8469 2 15.2913 2.4174 15.0854 3H8.91465C8.70873 2.4174 8.15311 2 7.5 2C6.67157 2 6 2.67157 6 3.5C6 4.32843 6.67157 5 7.5 5ZM15 12.5L18.7068 9.70701L17.2925 8.29285L13.2927 12.2929L13.9998 14L18.9999 13.9999L18.9998 11.9999L15 12.5ZM5.293 9.70718L9 12.5L4.99987 12.0001L4.99987 14.0001L10.0001 14.0001L10.7072 12.293L6.70721 8.29296L5.293 9.70718ZM4.99987 18H18.9999V16H4.99987V18Z" fill="#061A3C"/>
</svg>
