<svg width="24" height="24" viewBox="0 0 24 24" fill="none" xmlns="http://www.w3.org/2000/svg">
<path d="M19.7928 13.8166L21.8168 14.5654L21.1229 16.4412L19.0988 15.6924C18.6989 16.4595 18.1784 17.1537 17.5623 17.7499L18.7999 19.4L17.1999 20.6L15.9631 18.9509L17.5623 17.7499C18.1784 17.1537 18.6989 16.4595 19.0988 15.6924L19.7928 13.8166Z" fill="#061A3C"/>
<path d="M19.4185 9H20H22V11H19.9381L19.4185 9Z" fill="#061A3C"/>
<path d="M4 9H4.58152L4.06189 11H2V9H4Z" fill="#061A3C"/>
<path d="M2.18318 14.5654L4.20716 13.8166L4.90121 15.6924C5.30105 16.4595 5.82161 17.1537 6.43769 17.7499L8.03688 18.9509L6.80011 20.6L5.2001 19.4L6.43769 17.7499C5.82161 17.1537 5.30105 16.4595 4.90121 15.6924L2.87709 16.4412L2.18318 14.5654Z" fill="#061A3C"/>
<circle cx="12" cy="12" r="7" stroke="#061A3C" stroke-width="2"/>
<path d="M6 10H12M18 10H12M12 10V19" stroke="#061A3C" stroke-width="2"/>
<circle cx="8.5" cy="13.5" r="1.5" fill="#061A3C"/>
<circle cx="15.5" cy="13.5" r="1.5" fill="#061A3C"/>
</svg>
