<svg width="24" height="24" viewBox="0 0 24 24" fill="none" xmlns="http://www.w3.org/2000/svg">
<path fill-rule="evenodd" clip-rule="evenodd" d="M7 0C7.55228 0 8 0.447715 8 1V6C8 6.55228 7.55228 7 7 7C6.44772 7 6 6.55228 6 6V1C6 0.447715 6.44772 0 7 0Z" fill="#061A3C"/>
<path fill-rule="evenodd" clip-rule="evenodd" d="M17 0C17.5523 0 18 0.447715 18 1V6C18 6.55228 17.5523 7 17 7C16.4477 7 16 6.55228 16 6V1C16 0.447715 16.4477 0 17 0Z" fill="#061A3C"/>
<path fill-rule="evenodd" clip-rule="evenodd" d="M22 3H2V21H22V3ZM4 10H20V8H4V10Z" fill="#061A3C"/>
</svg>
