<svg width="24" height="24" viewBox="0 0 24 24" fill="none" xmlns="http://www.w3.org/2000/svg">
<path fill-rule="evenodd" clip-rule="evenodd" d="M8 1C8 0.447715 7.55228 0 7 0C6.44772 0 6 0.447715 6 1V3H2V21H22V9.74394C21.5308 9.90977 21.026 10 20.5 10C20.331 10 20.1642 9.99068 20 9.97254V10H4V8H16.7578C16.2791 7.28495 16 6.42507 16 5.5C16 3.93979 16.794 2.56504 18 1.75777V1C18 0.447715 17.5523 0 17 0C16.4477 0 16 0.447715 16 1V3H8V1Z" fill="#061A3C"/>
<circle cx="20.5" cy="5.5" r="2.5" fill="#061A3C"/>
</svg>
