<svg width="24" height="24" viewBox="0 0 24 24" fill="none" xmlns="http://www.w3.org/2000/svg">
<mask id="path-2-inside-1" fill="white">
<path fill-rule="evenodd" clip-rule="evenodd" d="M20 7H4V17H20V7ZM2 5V19H22V5H2Z"/>
</mask>
<path fill-rule="evenodd" clip-rule="evenodd" d="M20 7H4V17H20V7ZM2 5V19H22V5H2Z" fill="#061A3C"/>
<path d="M4 7V5H2V7H4ZM20 7H22V5H20V7ZM4 17H2V19H4V17ZM20 17V19H22V17H20ZM2 5V3H0V5H2ZM2 19H0V21H2V19ZM22 19V21H24V19H22ZM22 5H24V3H22V5ZM4 9H20V5H4V9ZM6 17V7H2V17H6ZM20 15H4V19H20V15ZM18 7V17H22V7H18ZM2 7H22V3H2V7ZM4 19V5H0V19H4ZM22 17H2V21H22V17ZM20 5V19H24V5H20Z" fill="#061A3C" mask="url(#path-2-inside-1)"/>
<mask id="path-4-inside-2" fill="white">
<path fill-rule="evenodd" clip-rule="evenodd" d="M12 14C13.1046 14 14 13.1046 14 12C14 10.8954 13.1046 10 12 10C10.8954 10 10 10.8954 10 12C10 13.1046 10.8954 14 12 14ZM12 16C14.2091 16 16 14.2091 16 12C16 9.79086 14.2091 8 12 8C9.79086 8 8 9.79086 8 12C8 14.2091 9.79086 16 12 16Z"/>
</mask>
<path fill-rule="evenodd" clip-rule="evenodd" d="M12 14C13.1046 14 14 13.1046 14 12C14 10.8954 13.1046 10 12 10C10.8954 10 10 10.8954 10 12C10 13.1046 10.8954 14 12 14ZM12 16C14.2091 16 16 14.2091 16 12C16 9.79086 14.2091 8 12 8C9.79086 8 8 9.79086 8 12C8 14.2091 9.79086 16 12 16Z" fill="#061A3C"/>
<path d="M12 12V16C14.2091 16 16 14.2091 16 12H12ZM12 12H16C16 9.79086 14.2091 8 12 8V12ZM12 12V8C9.79086 8 8 9.79086 8 12H12ZM12 12H8C8 14.2091 9.79086 16 12 16V12ZM14 12C14 13.1046 13.1046 14 12 14V18C15.3137 18 18 15.3137 18 12H14ZM12 10C13.1046 10 14 10.8954 14 12H18C18 8.68629 15.3137 6 12 6V10ZM10 12C10 10.8954 10.8954 10 12 10V6C8.68629 6 6 8.68629 6 12H10ZM12 14C10.8954 14 10 13.1046 10 12H6C6 15.3137 8.68629 18 12 18V14Z" fill="#061A3C" mask="url(#path-4-inside-2)"/>
<path d="M2 3H6V5H2V3Z" fill="#061A3C"/>
</svg>
