<svg width="24" height="24" viewBox="0 0 24 24" fill="none" xmlns="http://www.w3.org/2000/svg">
<path fill-rule="evenodd" clip-rule="evenodd" d="M6 3H2V5V19H22V5H6V3ZM20 7H15.3178C14.3675 6.36815 13.2267 6 12 6C10.7733 6 9.63251 6.36815 8.68221 7H4V17H8.68221C9.63251 17.6318 10.7733 18 12 18C13.2267 18 14.3675 17.6318 15.3178 17H20V7ZM8 12H12L10.5858 10.5858C10.9477 10.2239 11.4477 10 12 10C13.1046 10 14 10.8954 14 12C14 13.1046 13.1046 14 12 14C11.2597 14 10.6134 13.5978 10.2676 13H8.12602C8.57006 14.7252 10.1362 16 12 16C14.2091 16 16 14.2091 16 12C16 9.79086 14.2091 8 12 8C10.8954 8 9.89543 8.44772 9.17157 9.17157L8 8V12Z" fill="#18141F"/>
</svg>
