<svg width="24" height="24" viewBox="0 0 24 24" fill="none" xmlns="http://www.w3.org/2000/svg">
<path fill-rule="evenodd" clip-rule="evenodd" d="M3 8.97921V17.9769C5.88481 17.8457 8.79531 17.1772 11.8046 16.4803L11.8907 16.4604C14.8569 15.7734 17.9233 15.0632 21 14.931V6.02296C18.1485 6.15145 15.2561 6.79986 12.2495 7.47566L12.2242 7.48135C9.23348 8.15359 6.12978 8.85123 3 8.97921ZM23 4H22C18.5921 4 15.1841 4.76608 11.8954 5.50535L11.8109 5.52434C8.45431 6.27882 5.2168 7 2 7H1V20H2C5.47119 20 8.92105 19.2011 12.2289 18.435L12.2559 18.4288C15.6152 17.6508 18.8281 16.9091 22 16.9091H23V4Z" fill="#061A3C"/>
<path d="M12 15C13.6569 15 15 13.6569 15 12C15 10.3431 13.6569 9 12 9C10.3431 9 9 10.3431 9 12C9 13.6569 10.3431 15 12 15Z" fill="#061A3C"/>
</svg>
