<svg width="24" height="24" viewBox="0 0 24 24" fill="none" xmlns="http://www.w3.org/2000/svg">
<path fill-rule="evenodd" clip-rule="evenodd" d="M5 8C3.89543 8 3 8.89543 3 10V14C3 15.1046 3.89543 16 5 16H8V18H5C2.79086 18 1 16.2091 1 14V10C1 7.79086 2.79086 6 5 6H12C14.2091 6 16 7.79086 16 10V11C16 13.2091 14.2091 15 12 15V13C13.1046 13 14 12.1046 14 11V10C14 8.89543 13.1046 8 12 8H5Z" fill="#061A3C"/>
<path fill-rule="evenodd" clip-rule="evenodd" d="M12 16L19 16C20.1046 16 21 15.1046 21 14L21 10C21 8.89543 20.1046 8 19 8L16 8L16 6L19 6C21.2091 6 23 7.79086 23 10L23 14C23 16.2091 21.2091 18 19 18L12 18C9.79086 18 8 16.2091 8 14L8 13C8 10.7909 9.79086 9 12 9L12 11C10.8954 11 10 11.8954 10 13L10 14C10 15.1046 10.8954 16 12 16Z" fill="#061A3C"/>
</svg>
