<svg width="24" height="24" viewBox="0 0 24 24" fill="none" xmlns="http://www.w3.org/2000/svg">
<path fill-rule="evenodd" clip-rule="evenodd" d="M22 6H12V4H22V6Z" fill="#061A3C"/>
<path fill-rule="evenodd" clip-rule="evenodd" d="M22 13L12 13V11L22 11V13Z" fill="#061A3C"/>
<path fill-rule="evenodd" clip-rule="evenodd" d="M22 20L12 20V18L22 18V20Z" fill="#061A3C"/>
<path fill-rule="evenodd" clip-rule="evenodd" d="M3.58594 5.00003L2.04297 3.45706L3.45718 2.04285L5.00015 3.58582L6.54312 2.04285L7.95733 3.45706L6.41436 5.00003L7.95718 6.54285L6.54297 7.95706L5.00015 6.41424L3.45733 7.95706L2.04312 6.54285L3.58594 5.00003ZM3.45733 14.9571L5.00015 13.4142L6.54297 14.9571L7.95718 13.5428L6.41436 12L7.95733 10.4571L6.54312 9.04285L5.00015 10.5858L3.45718 9.04285L2.04297 10.4571L3.58594 12L2.04312 13.5428L3.45733 14.9571ZM5.00015 20.4142L3.45733 21.9571L2.04312 20.5428L3.58594 19L2.04297 17.4571L3.45718 16.0428L5.00015 17.5858L6.54312 16.0428L7.95733 17.4571L6.41436 19L7.95718 20.5428L6.54297 21.9571L5.00015 20.4142Z" fill="#061A3C"/>
</svg>
