<svg width="24" height="24" viewBox="0 0 24 24" fill="none" xmlns="http://www.w3.org/2000/svg">
<path fill-rule="evenodd" clip-rule="evenodd" d="M11 12V5H13V11.5L16.6 14.2L15.4 15.8L11.4 12.8L11 12Z" fill="#061A3C"/>
<path fill-rule="evenodd" clip-rule="evenodd" d="M12 21C16.9706 21 21 16.9706 21 12C21 7.02944 16.9706 3 12 3C9.26018 3 6.80631 4.22427 5.15559 6.15559L8 9H3.51212H1.41406H1V2L3.73781 4.73781C5.7537 2.44614 8.70797 1 12 1C18.0751 1 23 5.92487 23 12C23 18.0751 18.0751 23 12 23C5.92487 23 1 18.0751 1 12H3C3 16.9706 7.02944 21 12 21Z" fill="#061A3C"/>
</svg>
