<svg width="25" height="24" viewBox="0 0 25 24" fill="none" xmlns="http://www.w3.org/2000/svg">
<path fill-rule="evenodd" clip-rule="evenodd" d="M5.5 17.793V15.6632C4.31753 15.1015 3.5 13.8962 3.5 12.5C3.5 10.6578 4.9246 9.14638 6.73081 9.0101L8.29779 8.89188L8.55365 7.34141C8.86643 5.44599 10.5163 4 12.5 4C14.4837 4 16.1336 5.44599 16.4464 7.34141L16.7022 8.89188L18.2692 9.0101C20.0754 9.14638 21.5 10.6578 21.5 12.5C21.5 13.8962 20.6825 15.1015 19.5 15.6632V17.793C21.8085 17.14 23.5 15.0176 23.5 12.5C23.5 9.60363 21.2612 7.23017 18.4197 7.01577C17.9501 4.1703 15.4785 2 12.5 2C9.5215 2 7.0499 4.1703 6.58033 7.01577C3.73883 7.23016 1.5 9.60363 1.5 12.5C1.5 15.0176 3.1915 17.14 5.5 17.793ZM17.09 15.41L18.5 14L12.5 8L6.5 14L7.92 15.42L11.5 11.83V21H13.5V11.83L17.09 15.41Z" fill="#18141F" fill-opacity="0.79"/>
</svg>
