<svg width="24" height="24" viewBox="0 0 24 24" fill="none" xmlns="http://www.w3.org/2000/svg">
<path fill-rule="evenodd" clip-rule="evenodd" d="M10.6438 20H22C23.1046 20 24 19.1046 24 18V6C24 4.89543 23.1046 4 22 4H15.4438L10.6438 20ZM13.3558 4L8.55579 20H2C0.89543 20 0 19.1046 0 18V6C0 4.89543 0.895431 4 2 4H13.3558ZM7.70726 8.70706L4.41436 12L7.70726 15.2928L6.29304 16.7071L1.58594 12L6.29304 7.29285L7.70726 8.70706ZM16.2927 8.70706L19.5856 12L16.2927 15.2928L17.707 16.7071L22.4141 12L17.707 7.29285L16.2927 8.70706Z" fill="#061A3C"/>
</svg>
