<svg width="24" height="24" viewBox="0 0 24 24" fill="none" xmlns="http://www.w3.org/2000/svg">
<mask id="path-2-inside-1" fill="white">
<path fill-rule="evenodd" clip-rule="evenodd" d="M13 3C8.02944 3 4 7.02944 4 12C4 16.9706 8.02944 21 13 21H11C6.02944 21 2 16.9706 2 12C2 7.02944 6.02944 3 11 3H13Z"/>
</mask>
<path fill-rule="evenodd" clip-rule="evenodd" d="M13 3C8.02944 3 4 7.02944 4 12C4 16.9706 8.02944 21 13 21H11C6.02944 21 2 16.9706 2 12C2 7.02944 6.02944 3 11 3H13Z" fill="white"/>
<path d="M6 12C6 8.13401 9.13401 5 13 5V1C6.92487 1 2 5.92487 2 12H6ZM13 19C9.13401 19 6 15.866 6 12H2C2 18.0751 6.92487 23 13 23V19ZM13 19H11V23H13V19ZM11 19C7.13401 19 4 15.866 4 12H0C0 18.0751 4.92487 23 11 23V19ZM4 12C4 8.13401 7.13401 5 11 5V1C4.92487 1 0 5.92487 0 12H4ZM11 5H13V1H11V5Z" fill="#061A3C" mask="url(#path-2-inside-1)"/>
<path d="M21 12C21 16.4183 17.4183 20 13 20C8.58172 20 5 16.4183 5 12C5 7.58172 8.58172 4 13 4C17.4183 4 21 7.58172 21 12Z" stroke="#061A3C" stroke-width="2"/>
<mask id="path-5-inside-2" fill="white">
<path fill-rule="evenodd" clip-rule="evenodd" d="M13 9C11.3431 9 10 10.3431 10 12C10 13.6569 11.3431 15 13 15V17C10.2386 17 8 14.7614 8 12C8 9.23858 10.2386 7 13 7V9Z"/>
</mask>
<path fill-rule="evenodd" clip-rule="evenodd" d="M13 9C11.3431 9 10 10.3431 10 12C10 13.6569 11.3431 15 13 15V17C10.2386 17 8 14.7614 8 12C8 9.23858 10.2386 7 13 7V9Z" fill="white"/>
<path d="M13 9V11H15V9H13ZM13 15H15V13H13V15ZM13 17V19H15V17H13ZM13 7H15V5H13V7ZM12 12C12 11.4477 12.4477 11 13 11V7C10.2386 7 8 9.23858 8 12H12ZM13 13C12.4477 13 12 12.5523 12 12H8C8 14.7614 10.2386 17 13 17V13ZM15 17V15H11V17H15ZM6 12C6 15.866 9.13401 19 13 19V15C11.3431 15 10 13.6569 10 12H6ZM13 5C9.13401 5 6 8.13401 6 12H10C10 10.3431 11.3431 9 13 9V5ZM15 9V7H11V9H15Z" fill="#061A3C" mask="url(#path-5-inside-2)"/>
</svg>
