<svg width="24" height="24" viewBox="0 0 24 24" fill="none" xmlns="http://www.w3.org/2000/svg">
<path d="M19 14.3809C19 17.9911 15.9125 21 12 21C8.08747 21 5 17.9911 5 14.3809C5 12.012 6.09794 9.88114 7.67579 7.77156C8.46242 6.71985 9.34433 5.70396 10.2381 4.67872C10.2639 4.64922 10.2896 4.61971 10.3153 4.59019C10.8841 3.93791 11.4582 3.27946 12 2.61731C12.5418 3.27945 13.1159 3.93789 13.6846 4.59016C13.7104 4.61969 13.7361 4.64921 13.7619 4.67872C14.6557 5.70396 15.5376 6.71985 16.3242 7.77156C17.9021 9.88114 19 12.012 19 14.3809Z" stroke="#061A3C" stroke-width="2"/>
<path d="M12 21.5V3L15.5 6.49999L18.8081 12L19 14.5L17 18.5L12 21.5Z" fill="#061A3C"/>
</svg>
