<svg width="24" height="24" viewBox="0 0 24 24" fill="none" xmlns="http://www.w3.org/2000/svg">
<path d="M12 5L9 12H15L12 5Z" fill="#061A3C"/>
<mask id="path-3-inside-1" fill="white">
<path fill-rule="evenodd" clip-rule="evenodd" d="M13.368 12L12 8.80787L10.632 12L12 15.1921L13.368 12ZM15 12L12 5L9 12L12 19L15 12Z"/>
</mask>
<path fill-rule="evenodd" clip-rule="evenodd" d="M13.368 12L12 8.80787L10.632 12L12 15.1921L13.368 12ZM15 12L12 5L9 12L12 19L15 12Z" fill="#061A3C"/>
<path d="M12 8.80787L13.3787 8.21699L12 5L10.6213 8.21699L12 8.80787ZM13.368 12L14.7468 12.5908L15 12L14.7468 11.4091L13.368 12ZM10.632 12L9.25324 11.4091L9 12L9.25323 12.5908L10.632 12ZM12 15.1921L10.6213 15.783L12 19L13.3787 15.783L12 15.1921ZM15 12L16.3787 12.5908L16.632 12L16.3787 11.4091L15 12ZM12 5L13.3787 4.40912L12 1.19213L10.6213 4.40912L12 5ZM9 12L7.62128 11.4091L7.36805 12L7.62128 12.5908L9 12ZM12 19L10.6213 19.5909L12 22.8079L13.3787 19.5909L12 19ZM10.6213 9.39875L11.9893 12.5908L14.7468 11.4091L13.3787 8.21699L10.6213 9.39875ZM12.0107 12.5908L13.3787 9.39875L10.6213 8.21699L9.25324 11.4091L12.0107 12.5908ZM13.3787 14.6012L12.0107 11.4091L9.25323 12.5908L10.6213 15.783L13.3787 14.6012ZM11.9893 11.4091L10.6213 14.6012L13.3787 15.783L14.7468 12.5908L11.9893 11.4091ZM13.3787 19.5909L16.3787 12.5908L13.6213 11.4091L10.6213 18.4091L13.3787 19.5909ZM16.3787 11.4091L13.3787 4.40912L10.6213 5.59088L13.6213 12.5908L16.3787 11.4091ZM10.6213 4.40912L7.62128 11.4091L10.3787 12.5908L13.3787 5.59088L10.6213 4.40912ZM7.62128 12.5908L10.6213 19.5909L13.3787 18.4091L10.3787 11.4091L7.62128 12.5908Z" fill="#061A3C" mask="url(#path-3-inside-1)"/>
<mask id="path-5-inside-2" fill="white">
<path fill-rule="evenodd" clip-rule="evenodd" d="M12 21C16.9706 21 21 16.9706 21 12C21 7.02944 16.9706 3 12 3C7.02944 3 3 7.02944 3 12C3 16.9706 7.02944 21 12 21ZM12 23C18.0751 23 23 18.0751 23 12C23 5.92487 18.0751 1 12 1C5.92487 1 1 5.92487 1 12C1 18.0751 5.92487 23 12 23Z"/>
</mask>
<path fill-rule="evenodd" clip-rule="evenodd" d="M12 21C16.9706 21 21 16.9706 21 12C21 7.02944 16.9706 3 12 3C7.02944 3 3 7.02944 3 12C3 16.9706 7.02944 21 12 21ZM12 23C18.0751 23 23 18.0751 23 12C23 5.92487 18.0751 1 12 1C5.92487 1 1 5.92487 1 12C1 18.0751 5.92487 23 12 23Z" fill="#061A3C"/>
<path d="M19 12C19 15.866 15.866 19 12 19V23C18.0751 23 23 18.0751 23 12H19ZM12 5C15.866 5 19 8.13401 19 12H23C23 5.92487 18.0751 1 12 1V5ZM5 12C5 8.13401 8.13401 5 12 5V1C5.92487 1 1 5.92487 1 12H5ZM12 19C8.13401 19 5 15.866 5 12H1C1 18.0751 5.92487 23 12 23V19ZM21 12C21 16.9706 16.9706 21 12 21V25C19.1797 25 25 19.1797 25 12H21ZM12 3C16.9706 3 21 7.02944 21 12H25C25 4.8203 19.1797 -1 12 -1V3ZM3 12C3 7.02944 7.02944 3 12 3V-1C4.8203 -1 -1 4.8203 -1 12H3ZM12 21C7.02944 21 3 16.9706 3 12H-1C-1 19.1797 4.8203 25 12 25V21Z" fill="#061A3C" mask="url(#path-5-inside-2)"/>
</svg>
