<svg width="24" height="24" viewBox="0 0 24 24" fill="none" xmlns="http://www.w3.org/2000/svg">
<path fill-rule="evenodd" clip-rule="evenodd" d="M11 22L11 2L13 2L13 22L11 22Z" fill="#061A3C"/>
<path fill-rule="evenodd" clip-rule="evenodd" d="M0 7C0 5.34315 1.34315 4 3 4H9V6H3C2.44772 6 2 6.44772 2 7V17C2 17.5523 2.44772 18 3 18H9V20H3C1.34315 20 0 18.6569 0 17V7Z" fill="#061A3C"/>
<path d="M15 4H22C23.1046 4 24 4.89543 24 6V18C24 19.1046 23.1046 20 22 20H15V4Z" fill="#061A3C"/>
<path fill-rule="evenodd" clip-rule="evenodd" d="M6.58586 12L4.29297 9.70706L5.70718 8.29285L9.41429 12L5.70718 15.7071L4.29297 14.2928L6.58586 12Z" fill="#061A3C"/>
</svg>
