<svg width="60" height="60" viewBox="0 0 60 60" fill="none" xmlns="http://www.w3.org/2000/svg">
<g clip-path="url(#clip0_2356_18874)">
<path d="M30.0006 49.616C40.8339 49.616 49.616 40.8339 49.616 30.0006C49.616 19.1674 40.8339 10.3853 30.0006 10.3853C19.1674 10.3853 10.3853 19.1674 10.3853 30.0006C10.3853 40.8339 19.1674 49.616 30.0006 49.616Z" fill="white" fill-opacity="0.5"/>
<path fill-rule="evenodd" clip-rule="evenodd" d="M34.6159 30.0003L30.0005 19.6157L25.3848 30.0004L30.0002 39.2311L34.6159 30.0003ZM27.3198 30.0003H32.6805L30.0002 35.361L27.3198 30.0003Z" fill="#18141F" fill-opacity="0.79"/>
<path fill-rule="evenodd" clip-rule="evenodd" d="M12.6929 30.0006C12.6929 20.4418 20.4418 12.6929 30.0006 12.6929C39.5594 12.6929 47.3083 20.4418 47.3083 30.0006C47.3083 39.5594 39.5594 47.3083 30.0006 47.3083C20.4418 47.3083 12.6929 39.5594 12.6929 30.0006ZM30.0006 15.0006C21.7163 15.0006 15.0006 21.7163 15.0006 30.0006C15.0006 38.2849 21.7163 45.0006 30.0006 45.0006C38.2849 45.0006 45.0006 38.2849 45.0006 30.0006C45.0006 21.7163 38.2849 15.0006 30.0006 15.0006Z" fill="#18141F" fill-opacity="0.79"/>
<path d="M32.3914 7.70814V1.1543H31.0529V5.42814L27.6929 1.1543H26.5391V7.70814H27.8775V3.4343L31.2375 7.70814H32.3914Z" fill="#18141F" fill-opacity="0.79"/>
<path fill-rule="evenodd" clip-rule="evenodd" d="M33.5453 8.86203H30.677L29.0314 6.76893V8.86203H25.3853V0.000488281L28.2536 0.000488281L29.8991 2.09359V0.000488281L33.5453 0.000488281V8.86203ZM31.0529 5.42818L27.6929 1.15433L26.5391 1.15433V7.70818H27.8776V3.43433L31.2376 7.70818H32.3914V1.15433L31.0529 1.15433V5.42818Z" fill="white" fill-opacity="0.5"/>
</g>
<defs>
<clipPath id="clip0_2356_18874">
<rect width="60" height="60" fill="white" transform="translate(0.000488281 0.000488281)"/>
</clipPath>
</defs>
</svg>
