<svg width="24" height="24" viewBox="0 0 24 24" fill="none" xmlns="http://www.w3.org/2000/svg">
<path fill-rule="evenodd" clip-rule="evenodd" d="M10 1H9V2V3.51241C8.56045 3.66777 8.13667 3.85624 7.73167 4.07478L6.75736 3.10046L6.05025 2.39336L5.34314 3.10046L2.51471 5.92889L1.80761 6.636L2.51471 7.3431L3.69595 8.52434C3.63044 8.68069 3.56921 8.83929 3.51241 9H2H1V10V14V15H2H3.51241C3.66777 15.4395 3.85624 15.8633 4.07478 16.2683L3.10046 17.2426L2.39336 17.9498L3.10046 18.6569L5.92889 21.4853L6.636 22.1924L7.34311 21.4853L8.52434 20.3041C8.68069 20.3696 8.83929 20.4308 9 20.4876V22V23H10H14H15V22V20.4876C15.1607 20.4308 15.3193 20.3696 15.4757 20.304L16.6568 21.4852L17.364 22.1923L18.0711 21.4852L20.8995 18.6568L21.6066 17.9497L20.8995 17.2426L19.9252 16.2683C20.1438 15.8633 20.3322 15.4395 20.4876 15H22H23V14V10V9H22H20.4876C20.4308 8.83929 20.3696 8.68069 20.3041 8.52434L21.4852 7.34315L22.1923 6.63604L21.4852 5.92894L18.6568 3.10051L17.9497 2.3934L17.2426 3.10051L16.2683 4.07478C15.8633 3.85624 15.4395 3.66777 15 3.51241V2V1H14H10ZM11 4.25203V3H13V4.25203V5.02724L13.7507 5.22047C14.5152 5.41722 15.2295 5.74012 15.8702 6.16616L16.552 6.61952L17.131 6.04055L17.9497 5.22183L19.3639 6.63604L18.3943 7.60563L17.876 8.12398L18.2143 8.77429C18.4557 9.23813 18.6464 9.73217 18.7795 10.2493L18.9728 11H19.748H21V13H19.748H18.9728L18.7795 13.7507C18.5828 14.5152 18.2599 15.2295 17.8338 15.8702L17.3805 16.552L17.9595 17.131L18.7782 17.9497L17.364 19.3639L16.3944 18.3943L15.876 17.876L15.2257 18.2143C14.7619 18.4557 14.2678 18.6464 13.7507 18.7795L13 18.9728V19.748V21H11V19.748V18.9728L10.2493 18.7795C9.73217 18.6464 9.23813 18.4557 8.77429 18.2143L8.12398 17.876L7.60563 18.3943L6.636 19.364L5.22179 17.9498L6.04055 17.131L6.61952 16.552L6.16616 15.8702C5.74012 15.2295 5.41722 14.5152 5.22047 13.7507L5.02724 13H4.25203H3V11H4.25204H5.02724L5.22047 10.2493C5.35356 9.73217 5.54434 9.23813 5.78567 8.77429L6.12402 8.12398L5.60566 7.60563L4.63603 6.636L6.05025 5.22178L6.86901 6.04054L7.44798 6.61952L8.12981 6.16616C8.77054 5.74012 9.48482 5.41722 10.2493 5.22047L11 5.02724V4.25203ZM14 12C14 13.1046 13.1046 14 12 14C10.8954 14 10 13.1046 10 12C10 10.8954 10.8954 10 12 10C13.1046 10 14 10.8954 14 12ZM16 12C16 14.2091 14.2091 16 12 16C9.79086 16 8 14.2091 8 12C8 9.79086 9.79086 8 12 8C14.2091 8 16 9.79086 16 12Z" fill="white" fill-opacity="0.95"/>
</svg>
