<svg width="24" height="24" viewBox="0 0 24 24" fill="none" xmlns="http://www.w3.org/2000/svg">
<path d="M11.4342 22H12.6813V20.2167C15.1524 20.0813 17 18.6366 17 15.8826C17 13.5801 15.6836 12.1354 13.2587 11.1874L12.6813 10.9616V5.67946C13.7436 5.92777 14.4596 6.69526 14.6443 7.80136H16.6305C16.6305 5.45372 14.7136 4.05418 12.6813 3.76072V2H11.4342V3.73815C9.00924 3.89616 7.09238 5.36343 7.09238 7.82393C7.09238 9.90068 8.20092 11.4357 10.649 12.3837L11.4342 12.6772V18.298C10.1178 18.0497 9.194 17.1693 8.98614 15.4989H7C7.06928 18.4108 9.05543 19.9233 11.4342 20.1941V22ZM9.07852 7.82393C9.07852 6.65011 9.97921 5.76975 11.4342 5.61174V10.4876C9.81755 9.85553 9.07852 9.06546 9.07852 7.82393ZM15.0139 16.0181C15.0139 17.2822 13.9977 18.1851 12.6813 18.3431V13.1738C14.1824 13.8059 15.0139 14.5734 15.0139 16.0181Z" fill="#061A3C"/>
</svg>
