<svg width="24" height="24" viewBox="0 0 24 24" fill="none" xmlns="http://www.w3.org/2000/svg">
<path d="M2 14.232H5C6.032 18 9.416 20.616 13.52 20.616C17.192 20.616 20.288 18.528 21.608 15.288H19.328C18.2 17.328 16.088 18.6 13.52 18.6C10.448 18.6 8.072 16.848 7.16 14.232H14.984L15.56 12.936H6.824C6.776 12.576 6.752 12.192 6.752 11.808C6.752 11.4 6.776 11.016 6.848 10.632H16.664L17.264 9.312H7.184C8.12 6.744 10.496 5.016 13.52 5.016C16.088 5.016 18.2 6.288 19.328 8.328H21.608C20.288 5.088 17.192 3 13.52 3C9.44 3 6.08 5.568 5.024 9.312H2.624L2 10.632H4.76C4.712 11.016 4.688 11.4 4.688 11.808C4.688 12.192 4.712 12.576 4.76 12.936H2.624L2 14.232Z" fill="#061A3C"/>
</svg>
