<svg width="24" height="24" viewBox="0 0 24 24" fill="none" xmlns="http://www.w3.org/2000/svg">
<path fill-rule="evenodd" clip-rule="evenodd" d="M3.34341 11.9577C5.65043 15.3627 8.84378 17 12 17C15.4982 17 18.614 15.2434 20.6745 12.057C18.4951 8.70722 15.4837 7 12 7C8.67874 7 5.49979 8.68979 3.34341 11.9577ZM23 12.0467C20.5021 7.54333 16.6521 5 12 5C7.55417 5 3.45208 7.49666 1 11.9767C3.63542 16.5733 7.7375 19 12 19C16.6521 19 20.6625 16.41 23 12.0467Z" fill="#061A3C"/>
<path fill-rule="evenodd" clip-rule="evenodd" d="M12 14C13.1046 14 14 13.1046 14 12C14 10.8954 13.1046 10 12 10C10.8954 10 10 10.8954 10 12C10 13.1046 10.8954 14 12 14ZM12 16C14.2091 16 16 14.2091 16 12C16 9.79086 14.2091 8 12 8C9.79086 8 8 9.79086 8 12C8 14.2091 9.79086 16 12 16Z" fill="#061A3C"/>
</svg>
