<svg width="24" height="24" viewBox="0 0 24 24" fill="none" xmlns="http://www.w3.org/2000/svg">
<path fill-rule="evenodd" clip-rule="evenodd" d="M3.11621 3.88386L21.1162 21.8839L22.884 20.1161L19.284 16.5161C20.7631 15.3731 22.0266 13.8637 23 12.0467C20.5021 7.54333 16.6521 5 12 5C10.7468 5 9.52088 5.19838 8.35154 5.58366L4.88398 2.11609L3.11621 3.88386ZM9.98049 7.2126L10.9164 8.14851C11.261 8.05175 11.6245 8 12 8C14.2091 8 16 9.79086 16 12C16 12.3755 15.9482 12.739 15.8515 13.0836L17.8563 15.0884C18.927 14.3034 19.8794 13.2867 20.6745 12.057C18.4951 8.70722 15.4837 7 12 7C11.3183 7 10.6426 7.07119 9.98049 7.2126ZM12.2261 15.9937L8.00628 11.7739C8.00211 11.8488 8 11.9241 8 12C8 14.2091 9.79086 16 12 16C12.0759 16 12.1512 15.9979 12.2261 15.9937ZM3.34341 11.9577C4.0107 10.9464 4.77591 10.0863 5.61295 9.3806L4.19494 7.96258C2.95951 9.03266 1.87476 10.3785 1 11.9767C3.63542 16.5733 7.7375 19 12 19C12.9944 19 13.9596 18.8817 14.8853 18.6529L13.166 16.9337C12.7828 16.9777 12.3938 17 12 17C8.84378 17 5.65043 15.3627 3.34341 11.9577Z" fill="#061A3C"/>
</svg>
