<svg width="24" height="24" viewBox="0 0 24 24" fill="none" xmlns="http://www.w3.org/2000/svg">
<path fill-rule="evenodd" clip-rule="evenodd" d="M2.11621 3.88386L20.1162 21.8839L21.884 20.1161L18.7051 16.9372C20.4347 15.7548 21.9019 14.0964 23 12.0467C20.5021 7.54333 16.6521 5 12 5C10.4826 5 9.00531 5.29083 7.61996 5.85207L3.88398 2.11609L2.11621 3.88386ZM10.1965 8.42866L15.5713 13.8034C15.8455 13.2616 16 12.6488 16 12C16 9.79086 14.2091 8 12 8C11.3512 8 10.7384 8.15448 10.1965 8.42866ZM11.1396 15.9072C9.62112 15.5744 8.42563 14.3789 8.09277 12.8604L3.67257 8.44022C2.65251 9.4241 1.74923 10.6078 1 11.9767C3.63542 16.5733 7.7375 19 12 19C12.7019 19 13.3892 18.941 14.0583 18.8259L11.1396 15.9072Z" fill="#061A3C"/>
</svg>
