<svg width="24" height="24" viewBox="0 0 24 24" fill="none" xmlns="http://www.w3.org/2000/svg">
<path fill-rule="evenodd" clip-rule="evenodd" d="M12 6V7H20C21.1046 7 22 7.89543 22 9V11H20V9H10V6H4V18H12V20H2V6C2 4.89543 2.89543 4 4 4H10C11.1046 4 12 4.89543 12 6Z" fill="#061A3C"/>
<path fill-rule="evenodd" clip-rule="evenodd" d="M16 14.0111C16 15.1222 16.8889 16 18 16C19.1111 16 20 15.1333 20 14.0111C20 12.9 19.1111 12 18 12C16.8889 12 16 12.9 16 14.0111ZM22 17V20H14V17H22Z" fill="#061A3C"/>
</svg>
