<svg width="24" height="24" viewBox="0 0 24 24" fill="none" xmlns="http://www.w3.org/2000/svg">
<path fill-rule="evenodd" clip-rule="evenodd" d="M2.56086 6.39826C2.53851 6.41093 2.51589 6.42376 2.49298 6.43674L1.50684 4.69677C1.54112 4.67734 1.57564 4.65771 1.61044 4.63793C2.0623 4.38108 2.55975 4.09832 3.14922 3.88855C3.80467 3.6553 4.54441 3.51965 5.49991 3.51965C7.56248 3.51965 9.1687 4.5111 10.275 5.86823C11.01 6.76983 11.4314 7.74869 11.6146 8.72439C12.6494 8.80392 13.739 9.12186 14.8311 9.76172C16.3998 8.20876 18.7031 7.00011 21.9999 7.00011V9.00011C19.4749 9.00011 17.6922 9.84582 16.4458 10.9831C18.0738 12.5847 18.5491 14.5668 18.4993 16.034C18.4445 17.6495 17.9366 18.9099 17.0731 19.6826C16.1917 20.4712 15.034 20.6538 14.0158 20.2343C11.9279 19.3742 11.1137 16.5278 12.5808 13.1061C12.8269 12.5321 13.1429 11.9285 13.5401 11.3332C12.9001 11.0003 12.2731 10.8139 11.6747 10.7408C11.5773 11.5394 11.3435 12.2943 11.0205 12.955C10.5402 13.9378 9.82691 14.7919 8.97199 15.2913C8.09472 15.8038 6.99826 15.9652 5.98541 15.3575C5.46202 15.0435 5.10264 14.5765 4.95447 14.0114C4.81228 13.469 4.88519 12.9195 5.05746 12.4339C5.39773 11.4748 6.19153 10.5603 7.19384 9.88973C7.88083 9.4301 8.69755 9.06423 9.59765 8.86629C9.45029 8.26801 9.16968 7.67765 8.72481 7.13191C7.92404 6.14958 6.85289 5.51965 5.49991 5.51965C4.74762 5.51965 4.23736 5.62418 3.81976 5.77279C3.40086 5.92187 3.04612 6.12305 2.56086 6.39826ZM9.62039 10.9253C9.13257 11.0764 8.68969 11.2953 8.30597 11.552C7.55828 12.0522 7.10208 12.6524 6.94236 13.1026C6.86463 13.3217 6.87503 13.4505 6.88909 13.5042C6.89717 13.535 6.91279 13.5816 7.0144 13.6425C7.25156 13.7848 7.54999 13.8057 7.96322 13.5644C8.39881 13.3099 8.87166 12.797 9.22368 12.0767C9.39818 11.7197 9.53421 11.3314 9.62039 10.9253ZM15.1508 12.519C14.8524 12.9781 14.6116 13.4449 14.419 13.8942C13.1395 16.8784 14.2277 18.1585 14.7776 18.3851C15.0783 18.509 15.4234 18.475 15.7394 18.1921C16.0734 17.8933 16.4577 17.2272 16.5005 15.9662C16.5336 14.9913 16.2313 13.6492 15.1508 12.519Z" fill="#061A3C"/>
</svg>
