<svg width="24" height="24" viewBox="0 0 24 24" fill="none" xmlns="http://www.w3.org/2000/svg">
<path d="M2 5H22V9H24V13.7578C23.4156 13.3666 22.7344 13.1087 22 13.0275V11H20V7H4V11H2V15.5H8.46776C8.16835 16.1025 8 16.7816 8 17.5H5V20H3V17.5H0V9H2V5Z" fill="#061A3C"/>
<path d="M22 15.05C23.1411 15.2816 24 16.2905 24 17.5C24 18.8807 22.8807 20 21.5 20H12.5C11.1193 20 10 18.8807 10 17.5C10 16.6822 10.3927 15.9561 10.9998 15.5C11.4176 15.186 11.9371 15 12.5 15H21.5C21.6712 15 21.8384 15.0172 22 15.05Z" fill="#061A3C"/>
<path d="M4 12H12M20 12H12M12 12V6" stroke="#061A3C" stroke-width="2"/>
</svg>
