<svg width="24" height="24" viewBox="0 0 24 24" fill="none" xmlns="http://www.w3.org/2000/svg">
<path fill-rule="evenodd" clip-rule="evenodd" d="M20.3781 11.125C20.1824 10.4386 19.98 9.72859 19.7776 9C18.6666 5 16.4441 2 12 2C7.55592 2 5.3335 5 4.22242 9C3.91965 10.09 3.61689 11.1012 3.3366 12.0374C2.58829 14.5367 2.00019 16.501 2 18C1.99974 20.0604 3 22 5.3335 22C6.6438 22 7.47123 21.2756 7.97396 20.5387C8.2549 20.1269 9.19037 20.0784 9.4854 20.4802C10.0409 21.2368 10.879 22 12 22C13.121 22 13.9592 21.2368 14.5146 20.4803C14.8097 20.0784 15.7452 20.127 16.0261 20.5388C16.5288 21.2756 17.3563 22 18.6665 22C20.5 22 22 20.5604 22 18.5C22 16.8149 21.2567 14.2073 20.3781 11.125ZM10 10C10.5523 10 11 9.32843 11 8.5C11 7.67157 10.5523 7 10 7C9.44772 7 9 7.67157 9 8.5C9 9.32843 9.44772 10 10 10ZM8 12C8.32521 13 9.58051 15 12 15C14.4195 15 15.6748 13 16 12H8ZM15 8.5C15 9.32843 14.5523 10 14 10C13.4477 10 13 9.32843 13 8.5C13 7.67157 13.4477 7 14 7C14.5523 7 15 7.67157 15 8.5Z" fill="#061A3C"/>
</svg>
