<svg width="24" height="24" viewBox="0 0 24 24" fill="none" xmlns="http://www.w3.org/2000/svg">
<path fill-rule="evenodd" clip-rule="evenodd" d="M18.4654 11.7112L18.4656 11.7117L18.4656 11.7118L18.4657 11.7122L18.4658 11.7127C18.8013 12.8892 19.1095 13.9699 19.3687 14.9763C19.7856 16.5944 20 17.7494 20 18.5C20 19.497 19.3547 20 18.6665 20C18.4032 20 18.2364 19.9335 18.1099 19.8537C17.9652 19.7625 17.8182 19.6167 17.6782 19.4116C17.0249 18.4539 15.9535 18.2321 15.3631 18.2063C14.7868 18.1811 13.6331 18.3016 12.9025 19.2966C12.7099 19.5588 12.517 19.7527 12.3437 19.8707C12.1859 19.9781 12.0813 20 12 20C11.9188 20 11.8141 19.9781 11.6563 19.8707C11.483 19.7527 11.2901 19.5588 11.0975 19.2966C10.367 18.3016 9.21332 18.1811 8.63699 18.2063C8.04655 18.2321 6.97519 18.4539 6.32182 19.4116C6.18188 19.6167 6.03486 19.7625 5.89018 19.8537C5.76359 19.9335 5.59687 20 5.3335 20C4.80321 20 4.57108 19.8184 4.40724 19.5938C4.18561 19.2901 3.99991 18.7439 4 18.0002C4.00009 17.2701 4.20531 16.2539 4.62098 14.7652C4.80526 14.1051 5.01813 13.3941 5.25346 12.608L5.32252 12.3773C5.58323 11.5061 5.86594 10.5559 6.14945 9.53528C6.65578 7.71246 7.36238 6.32738 8.27555 5.41422C9.13298 4.55679 10.2831 4 12 4C13.7169 4 14.8671 4.55679 15.7245 5.41422C16.6377 6.32738 17.3443 7.71246 17.8506 9.53528C18.062 10.2962 18.2683 11.0199 18.4653 11.7106L18.4654 11.7112ZM19.7776 9C19.98 9.72859 20.1824 10.4386 20.3781 11.125C21.2567 14.2073 22 16.8149 22 18.5C22 20.5604 20.5 22 18.6665 22C17.3563 22 16.5288 21.2756 16.0261 20.5388C15.7452 20.127 14.8097 20.0784 14.5146 20.4803C13.9592 21.2368 13.121 22 12 22C10.879 22 10.0409 21.2368 9.4854 20.4802C9.19037 20.0784 8.2549 20.1269 7.97396 20.5387C7.47123 21.2756 6.6438 22 5.3335 22C3 22 1.99974 20.0604 2 18C2.00019 16.501 2.58829 14.5367 3.3366 12.0374L3.3366 12.0374L3.33663 12.0373C3.61691 11.1011 3.91966 10.0899 4.22242 9C5.3335 5 7.55592 2 12 2C16.4441 2 18.6666 5 19.7776 9ZM8 12C8.32521 13 9.58051 15 12 15C14.4195 15 15.6748 13 16 12H8ZM11 8.5C11 9.32843 10.5523 10 10 10C9.44772 10 9 9.32843 9 8.5C9 7.67157 9.44772 7 10 7C10.5523 7 11 7.67157 11 8.5ZM14 10C14.5523 10 15 9.32843 15 8.5C15 7.67157 14.5523 7 14 7C13.4477 7 13 7.67157 13 8.5C13 9.32843 13.4477 10 14 10Z" fill="#061A3C"/>
</svg>
