<svg width="24" height="24" viewBox="0 0 24 24" fill="none" xmlns="http://www.w3.org/2000/svg">
<path d="M12 1C6.47115 1 2 5.40948 2 10.8621C2 14.3707 3.91438 16.9138 6.66346 19.2069C9.41254 21.5 12 23 12 23C12 23 15.4375 20.875 17.3365 19.2069C20.1413 16.7432 22 14.3707 22 10.8621C22 5.40948 17.5288 1 12 1Z" fill="#061A3C"/>
<path d="M13.3317 8.9656C14.8489 8.9656 15.9394 10.0087 15.9394 11.2889V15.3665H13.4739V12.2371C13.4739 11.4785 13.2842 10.7199 12.2886 10.7199C11.3877 10.7199 11.0558 11.4785 11.0558 12.0949V15.4139H8.6377V6.31042H11.0558V10.0087C11.4825 9.43974 12.1463 8.9656 13.3317 8.9656Z" fill="white"/>
</svg>
