<svg width="24" height="24" viewBox="0 0 24 24" fill="none" xmlns="http://www.w3.org/2000/svg">
<path fill-rule="evenodd" clip-rule="evenodd" d="M13.5 5.5C10.9716 5.5 8.90759 6.75976 8.00682 8.46673L7.7254 9.00002L6.5 9L5.62283 13.7751L3 14.3151V15H11.2613L17.1648 17H19.7962C20.1262 16.0095 20.7039 13.9914 20.7039 12C20.7039 9.79433 19.8379 8.20494 18.5497 7.14811C17.2373 6.07139 15.4237 5.5 13.5 5.5ZM20.5 18L21.3944 18.4472L21.118 19H16.8352L10.9317 17H1V12.6849L4.09145 12.0484L5.06004 7L6.5519 7.00002C7.95195 4.85421 10.5722 3.5 13.5 3.5C15.795 3.5 18.0834 4.17861 19.8182 5.60189C21.5773 7.04506 22.7039 9.20567 22.7039 12C22.7039 15.1932 21.4434 18.3341 21.4282 18.372C21.4258 18.3781 21.4232 18.3844 21.4206 18.3905C21.4183 18.3959 21.416 18.4012 21.4137 18.4065C21.4118 18.4107 21.4099 18.4149 21.408 18.4191L21.4013 18.4332L21.3979 18.4402L21.3962 18.4437L21.3944 18.4472C21.3944 18.4472 21.3944 18.4472 20.5 18Z" fill="#061A3C"/>
</svg>
