<svg width="24" height="24" viewBox="0 0 24 24" fill="none" xmlns="http://www.w3.org/2000/svg">
<path fill-rule="evenodd" clip-rule="evenodd" d="M2 14V15V16V17V22H22V17V16V15V14H20V15V16V17V20H4V17V16V15V14H2ZM4 12H2V9.51093L3.67177 8.21066L4.89965 9.78937L4 10.4891V12ZM22 9.51093V12H20V10.4891L19.1003 9.78937L20.3282 8.21066L22 9.51093ZM5.60034 6.71066L8.17177 4.71066L9.39965 6.28937L6.82823 8.28937L5.60034 6.71066ZM15.8282 4.71066L18.3997 6.71066L17.1718 8.28937L14.6003 6.28937L15.8282 4.71066ZM11.3282 4.78937L10.1003 3.21066L12 1.73315L13.8997 3.21066L12.6718 4.78937L12 4.26688L11.3282 4.78937Z" fill="#061A3C"/>
</svg>
