<svg width="24" height="24" viewBox="0 0 24 24" fill="none" xmlns="http://www.w3.org/2000/svg">
<path d="M2 7.11905V16.881C2 19.8333 4.16667 22 7.11905 22H16.881C19.8333 22 22 19.8333 22 16.881V7.11905C22 4.16667 19.8333 2 16.881 2H7.11905C4.16667 2 2 4.16667 2 7.11905ZM16.6429 6.28571C16.6429 5.66667 17.0952 5.21429 17.7143 5.21429C18.3333 5.21429 18.7857 5.66667 18.7857 6.28571C18.7857 6.85714 18.3333 7.35714 17.7143 7.35714C17.0952 7.35714 16.6429 6.85714 16.6429 6.28571ZM7.71429 12C7.71429 9.61905 9.61905 7.71429 12.0238 7.71429C14.381 7.71429 16.2857 9.61905 16.2857 12C16.2857 14.381 14.381 16.2857 12.0238 16.2857C9.61905 16.2857 7.71429 14.381 7.71429 12ZM9.14286 12C9.14286 13.5952 10.4048 14.8571 12.0238 14.8571C13.5952 14.8571 14.8571 13.5952 14.8571 12C14.8571 10.4048 13.5952 9.14286 12.0238 9.14286C10.4048 9.14286 9.14286 10.4048 9.14286 12Z" fill="#061A3C"/>
</svg>
