<svg width="24" height="24" viewBox="0 0 24 24" fill="none" xmlns="http://www.w3.org/2000/svg">
<path fill-rule="evenodd" clip-rule="evenodd" d="M22 4H2V20H22V4ZM18 6C18 7.10457 18.8954 8 20 8C18.8954 8 18 8.89543 18 10C18 8.89543 17.1046 8 16 8C17.1046 8 18 7.10457 18 6ZM18 10C16.3432 10 15 11.3432 15 13C15 11.3432 13.6568 10 12 10C13.6568 10 15 8.65685 15 7C15 8.65685 16.3432 10 18 10ZM4 15L8.2265 9.92817C8.62805 9.44632 9.36894 9.44881 9.76723 9.93336L15 16.2993L17.264 14.4125C17.6755 14.0696 18.2841 14.1118 18.6443 14.5082L20 16V18H4V15Z" fill="#061A3C"/>
</svg>
