<svg width="24" height="24" viewBox="0 0 24 24" fill="none" xmlns="http://www.w3.org/2000/svg">
<path fill-rule="evenodd" clip-rule="evenodd" d="M18 6H20V8C18.8954 8 18 7.10457 18 6ZM18 10C18 8.89543 17.1046 8 16 8C17.1046 8 18 7.10457 18 6H4V12.2967L7.46543 8.25372C8.27449 7.30982 9.73955 7.32492 10.529 8.2853L15.1332 13.8866L16.6582 12.6157C17.4529 11.9534 18.6214 12.0064 19.3528 12.7379L20 13.3851V8C18.8954 8 18 8.89543 18 10ZM18 10C16.3432 10 15 11.3432 15 13C15 11.3432 13.6568 10 12 10C13.6568 10 15 8.65685 15 7C15 8.65685 16.3432 10 18 10ZM4 15.3699V18H20V16.2135L17.9386 14.1521L14.8668 16.7121L8.98395 9.5553L4 15.3699ZM2 20V4H22V20H2Z" fill="#061A3C"/>
</svg>
