<svg width="24" height="24" viewBox="0 0 24 24" fill="none" xmlns="http://www.w3.org/2000/svg">
<path fill-rule="evenodd" clip-rule="evenodd" d="M5.9998 6.43372L1.48526 9.14244L0.0561053 9.99993L1.48526 10.8574L3.43561 12.0276L0.0209961 13.9788L11.9997 21.1661L23.8692 14.0444L20.7114 11.9391L22.5143 10.8574L23.9434 9.99993L22.5143 9.14244L17.9998 6.43377V8.76615L20.0561 9.99993L11.9998 14.8337L3.94341 9.99993L5.9998 8.7661V6.43372ZM12.5143 16.8574L18.8137 13.0777L20.1302 13.9554L11.9997 18.8337L3.97846 14.0209L5.40201 13.2075L11.4853 16.8574L11.9998 17.1661L12.5143 16.8574Z" fill="#061A3C"/>
<path d="M14.8605 9.38H11.3325C11.5605 8.828 12.4605 8.36 12.9885 7.964C14.0685 7.172 14.7885 6.428 14.7885 4.964C14.7885 3.224 13.4925 2.336 12.0525 2.336C10.3605 2.336 9.07655 3.488 9.07655 5.156H10.7325C10.7205 4.472 11.2605 3.956 12.0165 3.956C12.7485 3.956 13.1445 4.436 13.1445 5.06C13.1445 5.756 12.5445 6.284 11.8005 6.812C10.5525 7.712 9.05255 8.528 9.05255 10.436V11H14.8605V9.38Z" fill="#061A3C"/>
</svg>
