<svg width="24" height="24" viewBox="0 0 24 24" fill="none" xmlns="http://www.w3.org/2000/svg">
<path fill-rule="evenodd" clip-rule="evenodd" d="M14.7654 5.15361L16.6686 4.53904L20.9699 17.8595L19.0666 18.474L14.7654 5.15361ZM14 3.29907L14.1508 3.25038L16.054 2.63581L17.9573 2.02124L18.5718 3.92448L22.8731 17.2449L23.4877 19.1481L21.5844 19.7627L19.6812 20.3773L17.7779 20.9918L17.1634 19.0886L14 9.29202V19V21H12H10H9H8H7H5H3V19V4.99995V2.99995H5H7H8H9H10H12H14V3.29907ZM7 4.99995H5V19H7V4.99995ZM12 4.99995H10V19H12V4.99995Z" fill="#18141F"/>
</svg>
