<svg width="24" height="24" viewBox="0 0 24 24" fill="none" xmlns="http://www.w3.org/2000/svg">
<mask id="path-2-inside-1" fill="white">
<path fill-rule="evenodd" clip-rule="evenodd" d="M11.622 1C12.9353 1 14 2.06468 14 3.37802V6.57476C14.7696 6.20448 15.614 6 16.4999 6C20.0898 6 22.9999 9.35786 22.9999 13.5C22.9999 17.5495 20.2185 20.8494 16.7398 20.995L16.7409 21H16.4999H10C7.23858 21 5 18.7614 5 16V11.6569C5 10.3308 5.52679 9.059 6.46447 8.12132L8.00262 6.58317C8.09838 6.48741 8.17369 6.3732 8.22399 6.24745L9.84053 2.2061C10.1319 1.47766 10.8374 1 11.622 1Z"/>
</mask>
<path d="M14 6.57476H12V9.75654L14.8672 8.37699L14 6.57476ZM16.7398 20.995L16.6561 18.9967L14.2801 19.0962L14.7855 21.42L16.7398 20.995ZM16.7409 21V23H19.2226L18.6952 20.575L16.7409 21ZM6.46447 8.12132L5.05026 6.70711L5.05025 6.70711L6.46447 8.12132ZM8.00262 6.58317L9.41683 7.99739L9.41683 7.99738L8.00262 6.58317ZM8.22399 6.24745L6.36703 5.50467L6.36703 5.50467L8.22399 6.24745ZM9.84053 2.2061L11.6975 2.94888L11.6975 2.94888L9.84053 2.2061ZM16 3.37802C16 0.960108 14.0399 -1 11.622 -1V3C11.8308 3 12 3.16925 12 3.37802H16ZM16 6.57476V3.37802H12V6.57476H16ZM16.4999 4C15.3011 4 14.1613 4.27768 13.1328 4.77253L14.8672 8.37699C15.3778 8.13127 15.927 8 16.4999 8V4ZM24.9999 13.5C24.9999 8.53157 21.4534 4 16.4999 4V8C18.7261 8 20.9999 10.1842 20.9999 13.5H24.9999ZM16.8234 22.9932C21.6126 22.7928 24.9999 18.3645 24.9999 13.5H20.9999C20.9999 16.7344 18.8244 18.906 16.6561 18.9967L16.8234 22.9932ZM18.6952 20.575L18.6941 20.57L14.7855 21.42L14.7866 21.425L18.6952 20.575ZM16.4999 23H16.7409V19H16.4999V23ZM10 23H16.4999V19H10V23ZM3 16C3 19.866 6.13401 23 10 23V19C8.34315 19 7 17.6569 7 16H3ZM3 11.6569V16H7V11.6569H3ZM5.05025 6.70711C3.7375 8.01986 3 9.80034 3 11.6569H7C7 10.8612 7.31607 10.0981 7.87868 9.53553L5.05025 6.70711ZM6.5884 5.16896L5.05026 6.70711L7.87868 9.53553L9.41683 7.99739L6.5884 5.16896ZM6.36703 5.50467C6.41733 5.37894 6.49264 5.26472 6.5884 5.16896L9.41683 7.99738C9.70412 7.7101 9.93005 7.36745 10.0809 6.99023L6.36703 5.50467ZM7.98357 1.46332L6.36703 5.50467L10.0809 6.99024L11.6975 2.94888L7.98357 1.46332ZM11.622 -1C10.0196 -1 8.57868 -0.0244404 7.98357 1.46332L11.6975 2.94888C11.6851 2.97976 11.6552 3 11.622 3V-1Z" fill="#061A3C" mask="url(#path-2-inside-1)"/>
<rect x="-1" y="1" width="3" height="9" transform="matrix(-1 0 0 1 5 9)" stroke="#061A3C" stroke-width="2"/>
</svg>
