<svg width="24" height="24" viewBox="0 0 24 24" fill="none" xmlns="http://www.w3.org/2000/svg">
<path fill-rule="evenodd" clip-rule="evenodd" d="M13.7928 3.79291C15.564 2.02167 18.4358 2.02167 20.207 3.7929C21.9782 5.56414 21.9782 8.43589 20.207 10.2071L17.207 13.2071L15.7928 11.7929L18.7928 8.79291C19.783 7.80272 19.783 6.19731 18.7928 5.20712C17.8026 4.21693 16.1972 4.21693 15.207 5.20712L12.207 8.20712L10.7928 6.7929L13.7928 3.79291ZM16.207 9.20712L9.20699 16.2071L7.79278 14.7929L14.7928 7.7929L16.207 9.20712ZM3.79278 13.7929L6.79278 10.7929L8.20699 12.2071L5.207 15.2071C4.21681 16.1973 4.21681 17.8027 5.20699 18.7929C6.19718 19.7831 7.80259 19.7831 8.79278 18.7929L11.7928 15.7929L13.207 17.2071L10.207 20.2071C8.43576 21.9784 5.56402 21.9784 3.79278 20.2071C2.02154 18.4359 2.02155 15.5641 3.79278 13.7929Z" fill="#061A3C"/>
</svg>
