<svg width="24" height="24" viewBox="0 0 24 24" fill="none" xmlns="http://www.w3.org/2000/svg">
<path fill-rule="evenodd" clip-rule="evenodd" d="M2.58117 4.66035C2 5.75799 2 7.20533 2 10.1V13.9C2 16.7947 2 18.242 2.58117 19.3396C3.05017 20.2254 3.77456 20.9498 4.66035 21.4188C5.75799 22 7.20533 22 10.1 22H13.9C16.7947 22 18.242 22 19.3396 21.4188C20.2254 20.9498 20.9498 20.2254 21.4188 19.3396C22 18.242 22 16.7947 22 13.9V10.1C22 7.20533 22 5.75799 21.4188 4.66035C20.9498 3.77456 20.2254 3.05017 19.3396 2.58117C18.242 2 16.7947 2 13.9 2H10.1C7.20533 2 5.75799 2 4.66035 2.58117C3.77456 3.05017 3.05017 3.77456 2.58117 4.66035ZM19 18V13.3572C19 10.8701 17.5195 9.71286 15.5447 9.71289C13.9507 9.71289 13.2385 10.4999 12.8398 11.0508V9.90311H9.83839C9.87881 10.6632 9.83839 18 9.83839 18H12.84V13.4782C12.84 13.2359 12.8604 12.995 12.9396 12.8219C13.1567 12.3378 13.6501 11.8373 14.4792 11.8373C15.5653 11.8373 15.9993 12.5799 15.9993 13.6681V18H19ZM12.8398 11.0508V11.077H12.82C12.8231 11.0726 12.8267 11.0679 12.8303 11.0632C12.8336 11.0591 12.8369 11.0549 12.8398 11.0508ZM5 7.39868C5 6.60417 5.67165 6 6.69852 6C7.72548 6 8.35674 6.60417 8.37647 7.39868C8.37647 8.17599 7.72548 8.79838 6.67873 8.79838H6.65868C5.65222 8.79838 5 8.17587 5 7.39868ZM8.1788 18H5.17827V9.90311H8.1788V18Z" fill="#061A3C"/>
</svg>
