<svg width="24" height="24" viewBox="0 0 24 24" fill="none" xmlns="http://www.w3.org/2000/svg">
<g clip-path="url(#clip0)">
<path fill-rule="evenodd" clip-rule="evenodd" d="M17 6.99999C19.7614 6.99999 22 9.23859 22 12C22 14.7615 19.7614 17 17 17H14V15H17C18.6568 15 20 13.6569 20 12C20 10.3432 18.6568 8.99999 17 8.99999H14L14 6.99999L17 6.99999ZM6.99999 13V11H16.9993L16.9999 13L6.99999 13ZM7.00008 6.99996L9.99999 6.99996L9.99999 8.99996L7.00008 8.99996C5.3432 8.99996 4.00003 10.3431 4.00004 12C4.00004 13.6569 5.34321 15.0001 7.00008 15.0001L9.99999 15.0001V17.0001H7.00008C4.23864 17.0001 2.00004 14.7615 2.00004 12C2.00003 9.23857 4.23863 6.99996 7.00008 6.99996Z" fill="#061A3C"/>
</g>
<defs>
<clipPath id="clip0">
<path d="M0 0H24V24H0V0Z" fill="white"/>
</clipPath>
</defs>
</svg>
