<svg width="24" height="24" viewBox="0 0 24 24" fill="none" xmlns="http://www.w3.org/2000/svg">
<path d="M8.5 11.5L18 21L21 18L11.5 8.5L8.5 11.5Z" fill="#061A3C"/>
<path d="M7.5 10.5L10.5 7.5L7.5 4.5L4.5 7.5L7.5 10.5Z" fill="#061A3C"/>
<path d="M10.5 0C10.5 1.38071 9.38071 2.5 8 2.5C9.38071 2.5 10.5 3.61929 10.5 5C10.5 3.61929 11.6193 2.5 13 2.5C11.6193 2.5 10.5 1.38071 10.5 0Z" fill="#061A3C"/>
<path d="M4 10C4 11.6568 2.65685 13 1 13C2.65685 13 4 14.3432 4 16C4 14.3432 5.34315 13 7 13C5.34315 13 4 11.6568 4 10Z" fill="#061A3C"/>
<path d="M2 4C2 5.10457 1.10457 6 0 6C1.10457 6 2 6.89543 2 8C2 6.89543 2.89543 6 4 6C2.89543 6 2 5.10457 2 4Z" fill="#061A3C"/>
</svg>
