<svg width="24" height="24" viewBox="0 0 24 24" fill="none" xmlns="http://www.w3.org/2000/svg">
<path d="M10.5 0C10.5 1.38071 9.38071 2.5 8 2.5C9.38071 2.5 10.5 3.61929 10.5 5C10.5 3.61929 11.6193 2.5 13 2.5C11.6193 2.5 10.5 1.38071 10.5 0Z" fill="#061A3C"/>
<path d="M4 10C4 11.6568 2.65685 13 1 13C2.65685 13 4 14.3432 4 16C4 14.3432 5.34315 13 7 13C5.34315 13 4 11.6568 4 10Z" fill="#061A3C"/>
<path d="M2 4C2 5.10457 1.10457 6 0 6C1.10457 6 2 6.89543 2 8C2 6.89543 2.89543 6 4 6C2.89543 6 2 5.10457 2 4Z" fill="#061A3C"/>
<path fill-rule="evenodd" clip-rule="evenodd" d="M10.1213 11.2929L11.2929 10.1213L19.1716 18L18 19.1716L10.1213 11.2929ZM18 22L22 18L8 4L4 8L18 22ZM6.82843 8L8.70711 9.87868L9.87868 8.70711L8 6.82843L6.82843 8Z" fill="#061A3C"/>
</svg>
