<svg width="24" height="24" viewBox="0 0 24 24" fill="none" xmlns="http://www.w3.org/2000/svg">
<path fill-rule="evenodd" clip-rule="evenodd" d="M13.5 16C16.5376 16 19 13.5376 19 10.5C19 7.46243 16.5376 5 13.5 5C10.4624 5 8 7.46243 8 10.5C8 13.5376 10.4624 16 13.5 16ZM13.5 18C17.6421 18 21 14.6421 21 10.5C21 6.35786 17.6421 3 13.5 3C9.35786 3 6 6.35786 6 10.5C6 14.6421 9.35786 18 13.5 18Z" fill="#061A3C"/>
<path fill-rule="evenodd" clip-rule="evenodd" d="M2.29297 20.2928L8.29297 14.2928L9.70718 15.7071L3.70718 21.7071L2.29297 20.2928Z" fill="#061A3C"/>
</svg>
