<svg width="24" height="24" viewBox="0 0 24 24" fill="none" xmlns="http://www.w3.org/2000/svg">
<path fill-rule="evenodd" clip-rule="evenodd" d="M3.37081 15.3937L1.71924 22H22.1805L20.8471 14H18V16H19.1529L19.8196 20H4.28079L5.09288 16.7516C4.68796 16.4609 4.2466 16.1271 3.79808 15.7586C3.65155 15.6382 3.50898 15.5167 3.37081 15.3937Z" fill="#061A3C"/>
<path fill-rule="evenodd" clip-rule="evenodd" d="M7 2H19V17H17V4H9V5H7V2Z" fill="#061A3C"/>
<path fill-rule="evenodd" clip-rule="evenodd" d="M12.5358 15H16V13H13.8655C13.5574 13.7178 13.1036 14.3705 12.5358 15ZM14.3158 11H16V9H14.0901C14.2412 9.55011 14.3217 10.128 14.3217 10.7241C14.3217 10.8172 14.3197 10.9092 14.3158 11ZM13.1533 7H16V5H11C11.8592 5.50999 12.5945 6.19355 13.1533 7Z" fill="#061A3C"/>
<path fill-rule="evenodd" clip-rule="evenodd" d="M3 10.931C3 8.20474 5.23558 6 8 6C10.7644 6 13 8.20474 13 10.931C13 12.6853 12.0707 13.8716 10.6683 15.1034C9.71875 15.9375 8 17 8 17C8 17 6.70627 16.25 5.33173 15.1034C3.95719 13.9569 3 12.6853 3 10.931ZM8 13C9.10457 13 10 12.1046 10 11C10 9.89543 9.10457 9 8 9C6.89543 9 6 9.89543 6 11C6 12.1046 6.89543 13 8 13Z" fill="#061A3C"/>
</svg>
