<svg width="24" height="24" viewBox="0 0 24 24" fill="none" xmlns="http://www.w3.org/2000/svg">
<path d="M0 5L5 9L2.90942 8.99998C4.14538 11.0175 6.87957 14 11.9753 14C16.8605 14 19.5728 10.942 20.9542 8.99998L19 9L24 5V11L22.822 9.82197C21.4276 11.8666 18.1509 16 11.9753 16C5.80732 16 2.53365 12.2763 1.11146 9.88849L0 11V5Z" fill="#061A3C"/>
<path d="M11.9999 19C13.9264 19 15.6409 18.092 16.7387 16.6807C17.8574 16.272 18.8439 15.7392 19.7079 15.1492C18.769 18.5237 15.6736 21 11.9999 21C8.4081 21 5.36918 18.633 4.35791 15.3737C5.23198 15.9319 6.22527 16.4218 7.34835 16.7902C8.44858 18.1388 10.1237 19 11.9999 19Z" fill="#061A3C"/>
<path d="M11.9999 7C9.48886 7 7.33811 8.54249 6.44348 10.7316C5.83325 10.2682 5.3319 9.75834 4.92592 9.26038C6.26832 6.72631 8.93249 5 11.9999 5C15.0004 5 17.6152 6.65193 18.9842 9.09596C18.565 9.59378 18.0711 10.1044 17.4891 10.5738C16.5573 8.46872 14.4501 7 11.9999 7Z" fill="#061A3C"/>
</svg>
