<svg width="24" height="24" viewBox="0 0 24 24" fill="none" xmlns="http://www.w3.org/2000/svg">
<path d="M5.70711 12.2929L5.41421 12L13 4.41421L20.5858 12L13 19.5858L5.70711 12.2929Z" stroke="#061A3C" stroke-width="2"/>
<path fill-rule="evenodd" clip-rule="evenodd" d="M18 3.26777C17.643 2.91074 17.0641 2.91074 16.7071 3.26777L14.7071 5.26777L14 4.56066L16 2.56066C16.7475 1.81311 17.9596 1.81311 18.7071 2.56066C19.4547 3.30821 19.4547 4.52022 18.7071 5.26777L13.7071 10.2678L13 9.56066L18 4.56066C18.357 4.20364 18.357 3.62479 18 3.26777Z" fill="#061A3C"/>
<path d="M5 16.8231C5 18.0254 4.10457 19 3 19C1.89543 19 1 18.0254 1 16.8231C1 15.2857 2.25 14.1429 3 13C3.75 14.1429 5 15.2857 5 16.8231Z" fill="#061A3C"/>
</svg>
