<svg width="24" height="24" viewBox="0 0 24 24" fill="none" xmlns="http://www.w3.org/2000/svg">
<path fill-rule="evenodd" clip-rule="evenodd" d="M4.07037 10H5.5C6.97394 10 8.29319 10.7942 8.81016 12.1728C9.29842 13.4748 8.91064 14.8805 7.96701 15.8604C7.75933 16.0957 7.56259 16.3023 7.41481 16.4574C7.37447 16.4998 7.33778 16.5383 7.30551 16.5725C7.12528 16.7637 7.07057 16.8339 7.0457 16.8713L7.04306 16.8749C7.04069 16.8779 7.04056 16.8781 7.03614 16.8957C7.02482 16.941 7 17.0726 7 17.3656C7 17.6819 7.15854 18.0741 7.56684 18.4326C7.98018 18.7955 8.51945 19 9 19H13.5C17.0898 19 20 16.0899 20 12.5V11.5C20 7.35786 16.6421 4 12.5 4C9.17892 4 7.70605 4.35306 6.06192 5.38323C5.35267 5.82763 4.51882 6.47676 3.88785 7.20117C3.22457 7.96267 3 8.55648 3 8.92963C3 9.52078 3.47922 10 4.07037 10ZM6.5 14.5C6.30934 14.7179 6.13628 14.8997 5.98115 15.0627C5.33508 15.7413 5 16.0933 5 17.3656C5 19.3728 6.99276 21 9 21H13.5C18.1944 21 22 17.1944 22 12.5V11.5C22 6.25329 17.7467 2 12.5 2C9 2 7.09577 2.37528 5 3.68844C3.34592 4.72484 1 6.76932 1 8.92963C1 10.6253 2.37465 12 4.07037 12H5.5C7 12 7.5 13.5 6.5 14.5ZM11 7.5C11 8.60457 10.1046 9.5 9 9.5C7.89543 9.5 7 8.60457 7 7.5C7 6.39543 7.89543 5.5 9 5.5C10.1046 5.5 11 6.39543 11 7.5ZM14 9C15.1046 9 16 8.10457 16 7C16 5.89543 15.1046 5 14 5C12.8954 5 12 5.89543 12 7C12 8.10457 12.8954 9 14 9ZM19 11C19 12.1046 18.1046 13 17 13C15.8954 13 15 12.1046 15 11C15 9.89543 15.8954 9 17 9C18.1046 9 19 9.89543 19 11ZM14 18C15.1046 18 16 17.1046 16 16C16 14.8954 15.1046 14 14 14C12.8954 14 12 14.8954 12 16C12 17.1046 12.8954 18 14 18Z" fill="#18141F"/>
</svg>
