<svg width="24" height="24" viewBox="0 0 24 24" fill="none" xmlns="http://www.w3.org/2000/svg">
<path fill-rule="evenodd" clip-rule="evenodd" d="M5.5 12H4.07037C2.37465 12 1 10.6253 1 8.92963C1 6.76932 3.34592 4.72484 5 3.68844C7.09577 2.37528 9 2 12.5 2C17.7467 2 22 6.25329 22 11.5V12.5C22 17.1944 18.1944 21 13.5 21H9C6.99276 21 5 19.3728 5 17.3656C5 15.7878 5.51531 15.6254 6.5 14.5C7.5 13.5 7 12 5.5 12ZM10 7C10 8.10457 9.10457 9 8 9C6.89543 9 6 8.10457 6 7C6 5.89543 6.89543 5 8 5C9.10457 5 10 5.89543 10 7ZM16 6C16 7.10457 15.1046 8 14 8C12.8954 8 12 7.10457 12 6C12 4.89543 12.8954 4 14 4C15.1046 4 16 4.89543 16 6ZM18 13C19.1046 13 20 12.1046 20 11C20 9.89543 19.1046 9 18 9C16.8954 9 16 9.89543 16 11C16 12.1046 16.8954 13 18 13ZM16 17C16 18.1046 15.1046 19 14 19C12.8954 19 12 18.1046 12 17C12 15.8954 12.8954 15 14 15C15.1046 15 16 15.8954 16 17Z" fill="#18141F"/>
</svg>
