<svg width="24" height="24" viewBox="0 0 24 24" fill="none" xmlns="http://www.w3.org/2000/svg">
<path fill-rule="evenodd" clip-rule="evenodd" d="M3 14H21V22H3V14ZM5 16V20H19V16H5Z" fill="#061A3C"/>
<path fill-rule="evenodd" clip-rule="evenodd" d="M12 11C9.24335 11 7 8.80243 7 6.01666C7 3.2599 9.21435 1 12 1C14.7857 1 17 3.2599 17 6.01666C17 8.82638 14.7493 11 12 11ZM9 6.01666C9 7.68333 10.3333 9 12 9C13.6667 9 15 7.7 15 6.01666C15 4.35 13.6667 3 12 3C10.3333 3 9 4.35 9 6.01666Z" fill="#061A3C"/>
</svg>
