<svg width="24" height="24" viewBox="0 0 24 24" fill="none" xmlns="http://www.w3.org/2000/svg">
<path fill-rule="evenodd" clip-rule="evenodd" d="M7 6.02777C7 7.68645 8.31221 9 10 9C11.6952 9 13 7.70694 13 6.02777C13 4.34009 11.6588 3 10 3C8.34121 3 7 4.34009 7 6.02777ZM5 6.02777C5 8.80555 7.22222 11 10 11C12.7778 11 15 8.83333 15 6.02777C15 3.24999 12.7778 1 10 1C7.22222 1 5 3.24999 5 6.02777ZM13.2095 9.86572C13.9301 10.5676 14.9146 11 16.0001 11C18.2093 11 20.0001 9.20914 20.0001 7C20.0001 4.79086 18.2093 3 16.0001 3C15.3783 3 14.7897 3.14187 14.2648 3.39501C14.7317 4.16064 15.0001 5.06233 15.0001 6.02777C15.0001 7.59539 14.3063 8.96355 13.2095 9.86572ZM17 22H1V13H17H19H23V22H19H17ZM3 15H17V20H3V15Z" fill="#061A3C"/>
</svg>
