<svg width="24" height="24" viewBox="0 0 24 24" fill="none" xmlns="http://www.w3.org/2000/svg">
<path fill-rule="evenodd" clip-rule="evenodd" d="M2.53044 2.51767C4.61379 0.457838 7.88844 0.532517 9.92287 2.51216L9.92804 2.51719C11.6059 4.17357 11.8937 6.68281 10.8963 8.63976L15.3392 13.1412C17.3279 12.1018 19.7861 12.4465 21.4666 14.0507L21.4812 14.0647L21.4953 14.0793C23.4956 16.1503 23.511 19.4611 21.4846 21.4955C19.3616 23.6269 16.2336 23.3565 14.1318 21.5478L14.1035 21.5234L2.52651 9.95189L2.52494 9.95032C0.511383 7.92878 0.470234 4.55431 2.53044 2.51767ZM8.52547 3.943C7.24504 2.69969 5.21806 2.67284 3.93654 3.93994C2.68232 5.17976 2.69179 7.28303 3.94127 8.53822C3.9415 8.53845 3.94104 8.53799 3.94127 8.53822L15.4633 20.0548C16.9276 21.2953 18.8324 21.3241 20.0676 20.0841C21.3003 18.8464 21.3201 16.7921 20.0708 15.4833C18.8602 14.3407 17.0721 14.242 15.7974 15.2116L15.0977 15.7437L8.31764 8.87428L8.83229 8.18536C9.76852 6.93211 9.68363 5.08893 8.52547 3.943Z" fill="#061A3C"/>
</svg>
