<svg width="24" height="24" viewBox="0 0 24 24" fill="none" xmlns="http://www.w3.org/2000/svg">
<mask id="path-2-inside-1" fill="white">
<path fill-rule="evenodd" clip-rule="evenodd" d="M17.3365 19.2069C15.4375 20.875 12 23 12 23C12 23 9.41254 21.5 6.66346 19.2069C3.91438 16.9138 2 14.3707 2 10.8621C2 5.40948 6.47115 1 12 1C17.5288 1 22 5.40948 22 10.8621C22 14.3707 20.1413 16.7432 17.3365 19.2069ZM4 10.8621C4 6.54015 7.54944 3 12 3C16.4506 3 20 6.54015 20 10.8621C20 13.4879 18.692 15.3543 16.0166 17.7043C15.1682 18.4496 13.9228 19.339 12.8378 20.0709C12.5294 20.2789 12.2402 20.47 11.985 20.6365C11.8287 20.5354 11.6574 20.4231 11.4736 20.3003C10.524 19.666 9.25028 18.7602 7.94456 17.6711C5.38562 15.5366 4 13.502 4 10.8621ZM14 10C14 11.1046 13.1046 12 12 12C10.8954 12 10 11.1046 10 10C10 8.89543 10.8954 8 12 8C13.1046 8 14 8.89543 14 10ZM12 14C14.2091 14 16 12.2091 16 10C16 7.79086 14.2091 6 12 6C9.79086 6 8 7.79086 8 10C8 12.2091 9.79086 14 12 14Z"/>
</mask>
<path fill-rule="evenodd" clip-rule="evenodd" d="M17.3365 19.2069C15.4375 20.875 12 23 12 23C12 23 9.41254 21.5 6.66346 19.2069C3.91438 16.9138 2 14.3707 2 10.8621C2 5.40948 6.47115 1 12 1C17.5288 1 22 5.40948 22 10.8621C22 14.3707 20.1413 16.7432 17.3365 19.2069ZM4 10.8621C4 6.54015 7.54944 3 12 3C16.4506 3 20 6.54015 20 10.8621C20 13.4879 18.692 15.3543 16.0166 17.7043C15.1682 18.4496 13.9228 19.339 12.8378 20.0709C12.5294 20.2789 12.2402 20.47 11.985 20.6365C11.8287 20.5354 11.6574 20.4231 11.4736 20.3003C10.524 19.666 9.25028 18.7602 7.94456 17.6711C5.38562 15.5366 4 13.502 4 10.8621ZM14 10C14 11.1046 13.1046 12 12 12C10.8954 12 10 11.1046 10 10C10 8.89543 10.8954 8 12 8C13.1046 8 14 8.89543 14 10ZM12 14C14.2091 14 16 12.2091 16 10C16 7.79086 14.2091 6 12 6C9.79086 6 8 7.79086 8 10C8 12.2091 9.79086 14 12 14Z" fill="#061A3C"/>
<path d="M12 23L10.9969 24.7303L12.033 25.3309L13.0516 24.7012L12 23ZM17.3365 19.2069L18.6564 20.7095L17.3365 19.2069ZM6.66346 19.2069L7.94456 17.6711L6.66346 19.2069ZM16.0166 17.7043L17.3365 19.2069L17.3365 19.2069L16.0166 17.7043ZM12.8378 20.0709L11.7194 18.4128L11.7194 18.4128L12.8378 20.0709ZM11.985 20.6365L10.8987 22.3158L11.9898 23.0216L13.078 22.3115L11.985 20.6365ZM11.4736 20.3003L10.3626 21.9634L10.3626 21.9634L11.4736 20.3003ZM7.94456 17.6711L6.66346 19.2069L7.94456 17.6711ZM12 23C13.0516 24.7012 13.0517 24.7011 13.0519 24.7011C13.0519 24.701 13.052 24.7009 13.0521 24.7009C13.0524 24.7007 13.0526 24.7006 13.053 24.7004C13.0536 24.7 13.0545 24.6994 13.0555 24.6988C13.0577 24.6975 13.0606 24.6956 13.0644 24.6933C13.0719 24.6886 13.0827 24.6819 13.0965 24.6733C13.1241 24.6561 13.1641 24.6312 13.2151 24.5991C13.3172 24.535 13.4638 24.4424 13.645 24.3264C14.0071 24.0946 14.51 23.7679 15.0745 23.3871C16.1829 22.6394 17.6059 21.6323 18.6564 20.7095L16.0166 17.7043C15.1682 18.4496 13.9228 19.339 12.8378 20.0709C12.3056 20.4299 11.8303 20.7387 11.4885 20.9575C11.3179 21.0667 11.181 21.1531 11.0877 21.2118C11.041 21.2411 11.0053 21.2634 10.9817 21.2781C10.9698 21.2855 10.9611 21.2909 10.9555 21.2944C10.9527 21.2962 10.9506 21.2974 10.9495 21.2981C10.9489 21.2985 10.9485 21.2987 10.9483 21.2989C10.9482 21.2989 10.9482 21.2989 10.9482 21.2989C10.9482 21.2989 10.9482 21.2989 10.9482 21.2989C10.9483 21.2989 10.9484 21.2988 12 23ZM5.38237 20.7427C6.82573 21.9467 8.22024 22.9374 9.25172 23.6264C9.76885 23.9719 10.1982 24.2438 10.5013 24.4311C10.653 24.5248 10.7733 24.5975 10.8574 24.6478C10.8995 24.673 10.9325 24.6925 10.956 24.7063C10.9677 24.7132 10.977 24.7187 10.9839 24.7227C10.9873 24.7247 10.9901 24.7263 10.9923 24.7276C10.9934 24.7282 10.9943 24.7288 10.9951 24.7292C10.9955 24.7294 10.9958 24.7296 10.9961 24.7298C10.9963 24.7299 10.9965 24.73 10.9966 24.7301C10.9967 24.7302 10.9969 24.7303 12 23C13.0031 21.2697 13.0032 21.2698 13.0034 21.2699C13.0034 21.2699 13.0036 21.27 13.0036 21.2701C13.0038 21.2701 13.0039 21.2702 13.004 21.2702C13.0041 21.2703 13.0041 21.2703 13.0039 21.2702C13.0036 21.27 13.0027 21.2695 13.0011 21.2686C12.998 21.2668 12.9924 21.2635 12.9845 21.2589C12.9688 21.2496 12.9435 21.2347 12.9095 21.2143C12.8414 21.1736 12.7381 21.1112 12.6042 21.0285C12.3362 20.8629 11.9469 20.6165 11.4736 20.3003C10.524 19.666 9.25028 18.7602 7.94456 17.6711L5.38237 20.7427ZM0 10.8621C0 15.2394 2.44314 18.291 5.38237 20.7427L7.94456 17.6711C5.38562 15.5366 4 13.502 4 10.8621H0ZM12 -1C5.39286 -1 0 4.27882 0 10.8621H4C4 6.54015 7.54944 3 12 3V-1ZM24 10.8621C24 4.27882 18.6071 -1 12 -1V3C16.4506 3 20 6.54015 20 10.8621H24ZM18.6564 20.7095C21.5907 18.1321 24 15.2535 24 10.8621H20C20 13.4879 18.692 15.3543 16.0166 17.7043L18.6564 20.7095ZM12 1C6.46914 1 2 5.41147 2 10.8621H6C6 7.66883 8.62975 5 12 5V1ZM22 10.8621C22 5.41147 17.5309 1 12 1V5C15.3703 5 18 7.66883 18 10.8621H22ZM17.3365 19.2069C20.1433 16.7415 22 14.3692 22 10.8621H18C18 12.6065 17.2407 13.9671 14.6967 16.2017L17.3365 19.2069ZM13.9561 21.729C15.0526 20.9894 16.3869 20.041 17.3365 19.2069L14.6968 16.2016C13.9494 16.8581 12.793 17.6886 11.7194 18.4128L13.9561 21.729ZM13.078 22.3115C13.3404 22.1402 13.6382 21.9434 13.9561 21.729L11.7194 18.4128C11.4206 18.6143 11.14 18.7998 10.892 18.9616L13.078 22.3115ZM10.3626 21.9634C10.5551 22.0919 10.7346 22.2096 10.8987 22.3158L13.0712 18.9572C12.9228 18.8612 12.7598 18.7543 12.5845 18.6372L10.3626 21.9634ZM6.66346 19.2069C8.03801 20.3535 9.37215 21.3017 10.3626 21.9634L12.5845 18.6372C11.6759 18.0303 10.4625 17.167 9.22565 16.1352L6.66346 19.2069ZM2 10.8621C2 14.3683 3.91151 16.9114 6.66346 19.2069L9.22565 16.1352C6.85972 14.1617 6 12.6357 6 10.8621H2ZM12 14C14.2091 14 16 12.2091 16 10H12V14ZM8 10C8 12.2091 9.79086 14 12 14V10H8ZM12 6C9.79086 6 8 7.79086 8 10H12V6ZM16 10C16 7.79086 14.2091 6 12 6V10H16ZM14 10C14 11.1046 13.1046 12 12 12V16C15.3137 16 18 13.3137 18 10H14ZM12 8C13.1046 8 14 8.89543 14 10H18C18 6.68629 15.3137 4 12 4V8ZM10 10C10 8.89543 10.8954 8 12 8V4C8.68629 4 6 6.68629 6 10H10ZM12 12C10.8954 12 10 11.1046 10 10H6C6 13.3137 8.68629 16 12 16V12Z" fill="#061A3C" mask="url(#path-2-inside-1)"/>
</svg>
