<svg width="24" height="24" viewBox="0 0 24 24" fill="none" xmlns="http://www.w3.org/2000/svg">
<path d="M23 12C23 5.92381 18.0762 1 12 1C5.92381 1 1 5.92381 1 12C1 16.5048 3.69762 20.381 7.6 22.0833C7.54762 21.2976 7.57381 20.3809 7.78333 19.5428L9.19762 13.5714C8.83095 12.8643 8.83095 11.8167 8.83095 11.8167C8.83095 10.1928 9.77381 8.9619 10.9524 8.9619C11.9476 8.9619 12.4452 9.72144 12.4452 10.6119C12.4452 11.6333 11.7905 13.1262 11.4762 14.5143C11.1881 15.6929 12.0524 16.6357 13.2048 16.6357C15.3 16.6357 16.6881 13.9643 16.6881 10.7952C16.6881 8.38571 15.0643 6.57856 12.1048 6.57856C8.77857 6.57856 6.70953 9.06666 6.70953 11.8429C6.70953 12.8119 6.99762 13.4667 7.44286 14.0167C7.62619 14.2524 7.65238 14.331 7.6 14.619C7.52143 14.8286 7.41667 15.3 7.36429 15.4833C7.28572 15.7714 7.05 15.8762 6.81428 15.7714C5.29524 15.1429 4.5619 13.4667 4.5619 11.5809C4.5619 8.43809 7.20714 4.69286 12.419 4.69286C16.6357 4.69286 19.3857 7.75715 19.3857 11.0048C19.3857 15.3262 16.9762 18.5476 13.4405 18.5476C12.2619 18.5476 11.1357 17.8929 10.769 17.1595L9.98334 20.1976C9.77381 21.0357 9.30238 21.8738 8.88333 22.5286C9.87857 22.8429 10.9 23 12 23C18.0762 23 23 18.0762 23 12Z" fill="#061A3C"/>
</svg>
