<svg width="24" height="24" viewBox="0 0 24 24" fill="none" xmlns="http://www.w3.org/2000/svg">
<path fill-rule="evenodd" clip-rule="evenodd" d="M4 14H9.5V12H4V6H11V10H12H13V6H20V10H22V4H2V20H12V18H4V14ZM18 11C16.3431 11 15 12.3431 15 14V15H14V22H22V15H21V14C21 12.3431 19.6569 11 18 11ZM19 14V15H17V14C17 13.4477 17.4477 13 18 13C18.5523 13 19 13.4477 19 14ZM18 19.5C18.5523 19.5 19 19.0523 19 18.5C19 17.9477 18.5523 17.5 18 17.5C17.4477 17.5 17 17.9477 17 18.5C17 19.0523 17.4477 19.5 18 19.5Z" fill="#18141F"/>
</svg>
