<svg width="24" height="24" viewBox="0 0 24 24" fill="none" xmlns="http://www.w3.org/2000/svg">
<path fill-rule="evenodd" clip-rule="evenodd" d="M4 14H9.5V12H4V6H11V10H12H13V6H20V10H22V4H2V20H12V18H4V14ZM14 15H15H17H18H19V14C19 13.4477 18.5523 13 18 13C17.6729 13 17.3824 13.1571 17.2 13.4L15.5999 12.1999C16.1472 11.4713 17.0186 11 18 11C19.6569 11 21 12.3431 21 14V15H22V22H14V15ZM19 18.5C19 19.0523 18.5523 19.5 18 19.5C17.4477 19.5 17 19.0523 17 18.5C17 17.9477 17.4477 17.5 18 17.5C18.5523 17.5 19 17.9477 19 18.5Z" fill="#18141F"/>
</svg>
