<svg width="24" height="24" viewBox="0 0 24 24" fill="none" xmlns="http://www.w3.org/2000/svg">
<mask id="path-2-inside-1" fill="white">
<path fill-rule="evenodd" clip-rule="evenodd" d="M6 10H2V21H22V10H18V12H20V19H4V12H6V10Z"/>
</mask>
<path fill-rule="evenodd" clip-rule="evenodd" d="M6 10H2V21H22V10H18V12H20V19H4V12H6V10Z" fill="#061A3C"/>
<path d="M6 10H8V8H6V10ZM2 10V8H0V10H2ZM2 21H0V23H2V21ZM22 21V23H24V21H22ZM22 10H24V8H22V10ZM18 10V8H16V10H18ZM18 12H16V14H18V12ZM20 12H22V10H20V12ZM20 19V21H22V19H20ZM4 19H2V21H4V19ZM4 12V10H2V12H4ZM6 12V14H8V12H6ZM6 8H2V12H6V8ZM0 10V21H4V10H0ZM2 23H22V19H2V23ZM24 21V10H20V21H24ZM22 8H18V12H22V8ZM16 10V12H20V10H16ZM20 10H18V14H20V10ZM22 19V12H18V19H22ZM4 21H20V17H4V21ZM2 12V19H6V12H2ZM6 10H4V14H6V10ZM8 12V10H4V12H8Z" fill="#061A3C" mask="url(#path-2-inside-1)"/>
<mask id="path-4-inside-2" fill="white">
<path fill-rule="evenodd" clip-rule="evenodd" d="M13.1716 5L16 7.82843V13H8V5H13.1716ZM18 7L14 3H6V15H18V7Z"/>
</mask>
<path fill-rule="evenodd" clip-rule="evenodd" d="M13.1716 5L16 7.82843V13H8V5H13.1716ZM18 7L14 3H6V15H18V7Z" fill="white"/>
<path d="M13.1716 5L14.5858 3.58579L14 3H13.1716V5ZM16 7.82843H18V7L17.4142 6.41421L16 7.82843ZM16 13V15H18V13H16ZM8 13H6V15H8V13ZM8 5V3H6V5H8ZM18 7H20V6.17157L19.4142 5.58579L18 7ZM14 3L15.4142 1.58579L14.8284 1H14V3ZM6 3V1H4V3H6ZM6 15H4V17H6V15ZM18 15V17H20V15H18ZM14 7.82843V13H18V7.82843H14ZM16 11H8V15H16V11ZM10 13V5H6V13H10ZM8 7H13.1716V3H8V7ZM11.7574 6.41421L14.5858 9.24264L17.4142 6.41421L14.5858 3.58579L11.7574 6.41421ZM12.5858 4.41421L16.5858 8.41421L19.4142 5.58579L15.4142 1.58579L12.5858 4.41421ZM6 5H14V1H6V5ZM8 15V3H4V15H8ZM18 13H6V17H18V13ZM16 7V15H20V7H16Z" fill="#061A3C" mask="url(#path-4-inside-2)"/>
<rect x="16" y="16" width="2" height="2" fill="#061A3C"/>
</svg>
