<svg width="24" height="24" viewBox="0 0 24 24" fill="none" xmlns="http://www.w3.org/2000/svg">
<mask id="path-2-inside-1" fill="white">
<path fill-rule="evenodd" clip-rule="evenodd" d="M9 9V4H11V11H2V9H9ZM15 9V4H13V11H22V9H15ZM9 15H2V13H11V20H9V15ZM13 13H22V15H15V20H13V13Z"/>
</mask>
<path fill-rule="evenodd" clip-rule="evenodd" d="M9 9V4H11V11H2V9H9ZM15 9V4H13V11H22V9H15ZM9 15H2V13H11V20H9V15ZM13 13H22V15H15V20H13V13Z" fill="#061A3C"/>
<path d="M9 4V2H7V4H9ZM9 9V11H11V9H9ZM11 4H13V2H11V4ZM11 11V13H13V11H11ZM2 11H0V13H2V11ZM2 9V7H0V9H2ZM15 9H13V11H15V9ZM15 4H17V2H15V4ZM13 4V2H11V4H13ZM13 11H11V13H13V11ZM22 11V13H24V11H22ZM22 9H24V7H22V9ZM2 15H0V17H2V15ZM9 15H11V13H9V15ZM2 13V11H0V13H2ZM11 13H13V11H11V13ZM11 20V22H13V20H11ZM9 20H7V22H9V20ZM13 13V11H11V13H13ZM22 13H24V11H22V13ZM22 15V17H24V15H22ZM15 15V13H13V15H15ZM15 20V22H17V20H15ZM13 20H11V22H13V20ZM7 4V9H11V4H7ZM11 2H9V6H11V2ZM0 9V11H4V9H0ZM9 7H2V11H9V7ZM17 9V4H13V9H17ZM15 2H13V6H15V2ZM24 11V9H20V11H24ZM22 7H15V11H22V7ZM2 17H9V13H2V17ZM0 13V15H4V13H0ZM9 22H11V18H9V22ZM7 15V20H11V15H7ZM24 15V13H20V15H24ZM15 17H22V13H15V17ZM17 20V15H13V20H17ZM13 22H15V18H13V22ZM13 11V4H9V11H13ZM2 13H11V9H2V13ZM11 4V11H15V4H11ZM13 13H22V9H13V13ZM11 11H2V15H11V11ZM13 20V13H9V20H13ZM22 11H13V15H22V11ZM11 13V20H15V13H11Z" fill="#061A3C" mask="url(#path-2-inside-1)"/>
</svg>
