<svg width="24" height="24" viewBox="0 0 24 24" fill="none" xmlns="http://www.w3.org/2000/svg">
<path fill-rule="evenodd" clip-rule="evenodd" d="M12 3C10.573 3 9.32695 3.96614 8.97156 5.34822L8.28967 8H15.7103L15.0284 5.34822C14.673 3.96614 13.427 3 12 3ZM7.03458 4.85014L6.22461 8H3L1.28572 20L1 22H3.0203H20.9797H23L22.7143 20L21 8H17.7754L16.9654 4.85014C16.3827 2.58408 14.3398 1 12 1C9.66023 1 7.61728 2.58408 7.03458 4.85014ZM20.694 20L19.2654 10H4.73459L3.30602 20H20.694ZM9 13V13.0002C9.00008 14.8677 10.4686 16 12 16C13.5023 16 15 14.8946 15 12.8333V12H17V12.8333C17 16.1054 14.4977 18 12 18C9.5314 18 7 16.1324 7 13V12.9998L7.00016 11.9998L9.00016 12.0002L9 13Z" fill="#18141F"/>
</svg>
