<svg width="24" height="24" viewBox="0 0 24 24" fill="none" xmlns="http://www.w3.org/2000/svg">
<path fill-rule="evenodd" clip-rule="evenodd" d="M11.9998 5.27783L10.1664 9.73894L5.88867 10.2889L8.94423 13.0389L7.72201 17.5001L11.9998 14.6889L16.2776 17.5001L15.0553 13.0389L18.1109 10.2889L13.8331 9.73894L11.9998 5.27783Z" fill="#061A3C"/>
<path fill-rule="evenodd" clip-rule="evenodd" d="M12 21C16.9706 21 21 16.9706 21 12C21 7.02944 16.9706 3 12 3C7.02944 3 3 7.02944 3 12C3 16.9706 7.02944 21 12 21ZM12 23C18.0751 23 23 18.0751 23 12C23 5.92487 18.0751 1 12 1C5.92487 1 1 5.92487 1 12C1 18.0751 5.92487 23 12 23Z" fill="#061A3C"/>
</svg>
