<svg width="25" height="24" viewBox="0 0 25 24" fill="none" xmlns="http://www.w3.org/2000/svg">
<path d="M6.34424 6.63604L5.63713 5.92893L4.93002 6.63604L5.63713 7.34315L6.34424 6.63604ZM19.0722 19.364L18.3651 20.0711L19.0722 20.7782L19.7793 20.0711L19.0722 19.364ZM18.6162 18.908L17.6552 18.6317L17.4923 19.1983L17.9091 19.6151L18.6162 18.908ZM14.9015 15.1933L14.1944 15.9004L14.6113 16.3173L15.1778 16.1544L14.9015 15.1933ZM14.3736 14.6654L13.4125 14.3891L13.2496 14.9556L13.6665 15.3725L14.3736 14.6654ZM13.6119 11.7124L14.319 11.0053V11.0053L13.6119 11.7124ZM10.6589 10.9507L9.95183 11.6578L10.3687 12.0747L10.9352 11.9118L10.6589 10.9507ZM10.1309 10.4227L9.16985 10.1464L9.00695 10.713L9.42381 11.1298L10.1309 10.4227ZM9.36926 7.46968L8.66215 8.17678H8.66215L9.36926 7.46968ZM6.41622 6.70802L5.70911 7.41513L6.12597 7.83198L6.69254 7.66909L6.41622 6.70802ZM19.7793 5.92893C15.874 2.02369 9.54237 2.02369 5.63713 5.92893L7.05135 7.34315C10.1755 4.21895 15.2409 4.21895 18.3651 7.34315L19.7793 5.92893ZM19.7793 20.0711C23.6845 16.1658 23.6845 9.83418 19.7793 5.92893L18.3651 7.34315C21.4892 10.4673 21.4892 15.5327 18.3651 18.6569L19.7793 20.0711ZM17.9091 19.6151L18.3651 20.0711L19.7793 18.6569L19.3233 18.2009L17.9091 19.6151ZM17.1475 16.6621C17.6796 17.1942 17.8505 17.9523 17.6552 18.6317L19.5773 19.1844C19.9656 17.834 19.6287 16.3149 18.5617 15.2479L17.1475 16.6621ZM15.1778 16.1544C15.8573 15.959 16.6154 16.13 17.1475 16.6621L18.5617 15.2479C17.4947 14.1808 15.9755 13.844 14.6252 14.2323L15.1778 16.1544ZM13.6665 15.3725L14.1944 15.9004L15.6086 14.4862L15.0807 13.9583L13.6665 15.3725ZM12.9048 12.4195C13.4369 12.9516 13.6078 13.7097 13.4125 14.3891L15.3347 14.9417C15.7229 13.5914 15.386 12.0723 14.319 11.0053L12.9048 12.4195ZM10.9352 11.9118C11.6146 11.7165 12.3727 11.8874 12.9048 12.4195L14.319 11.0053C13.252 9.9383 11.7329 9.60146 10.3826 9.98966L10.9352 11.9118ZM9.42381 11.1298L9.95183 11.6578L11.366 10.2436L10.838 9.71561L9.42381 11.1298ZM8.66215 8.17678C9.19425 8.70888 9.36519 9.46697 9.16985 10.1464L11.092 10.699C11.4802 9.34871 11.1434 7.82959 10.0764 6.76257L8.66215 8.17678ZM6.69254 7.66909C7.37196 7.47374 8.13005 7.64468 8.66215 8.17678L10.0764 6.76257C9.00934 5.69555 7.49023 5.35872 6.1399 5.74695L6.69254 7.66909ZM5.63713 7.34315L5.70911 7.41513L7.12332 6.00091L7.05134 5.92893L5.63713 7.34315Z" fill="#061A3C"/>
<path d="M20.729 4.46448L18.9612 6.23224" stroke="#061A3C" stroke-width="2"/>
<path d="M12.9509 12.2426L3.95093 21.2426" stroke="#061A3C" stroke-width="2"/>
</svg>
