<svg width="24" height="24" viewBox="0 0 24 24" fill="none" xmlns="http://www.w3.org/2000/svg">
<path fill-rule="evenodd" clip-rule="evenodd" d="M10.0001 3.03528L13.8638 2L14.8991 5.8637L11.0353 6.89898L10.0001 3.03528ZM8.79621 5.17165L9.77403 6.36676L12.7111 9.95656L15.8236 9L16.9987 12.8235L15.409 13.2539L18.774 17.3668L19.7289 18.5339L18.2822 18.9594L3.48624 23.3112C1.80966 23.8043 0.351505 22.0611 1.13305 20.498L8.10564 6.55279L8.79621 5.17165ZM9.20393 8.82835L2.9219 21.3924L16.2712 17.4662L9.20393 8.82835ZM21.8989 5.03527L18.0352 4L17 7.8637L20.8637 8.89898L21.8989 5.03527ZM23.5606 13.0964L20.0965 11.0964L18.0965 14.5605L21.5606 16.5605L23.5606 13.0964Z" fill="#18141F"/>
</svg>
