<svg width="24" height="24" viewBox="0 0 24 24" fill="none" xmlns="http://www.w3.org/2000/svg">
<path fill-rule="evenodd" clip-rule="evenodd" d="M2.75804 5H2V7H4.75804L2.75804 5ZM13.2511 7L15.2511 5H22V7H13.2511ZM7.25114 13H10.758L9.00459 11.2465L7.25114 13ZM18.5648 13L18.9041 12.6608L17.2433 11H22V13H18.5648ZM22 19H2V17H22V19Z" fill="#061A3C"/>
<path fill-rule="evenodd" clip-rule="evenodd" d="M9.00435 8.41813L3.41861 14.0039L2.00439 12.5897L7.59014 7.00392L2.0044 1.41812L3.41861 0.00390625L9.00435 5.58971L14.5902 0.00390625L16.0044 1.41812L10.4186 7.00392L16.0044 12.5897L14.5902 14.0039L9.00435 8.41813Z" fill="#061A3C"/>
</svg>
