<svg width="24" height="24" viewBox="0 0 24 24" fill="none" xmlns="http://www.w3.org/2000/svg">
<path d="M14 13.5C14 17.229 11.408 20 8.5 20C5.59199 20 3 17.229 3 13.5C3 9.77101 5.59199 7 8.5 7C11.408 7 14 9.77101 14 13.5Z" stroke="#061A3C" stroke-width="2"/>
<path d="M12 8.5V6L13.5697 2.86057C13.8334 2.33316 14.3725 2 14.9621 2V2C15.5353 2 16 2.46466 16 3.03786V6.17157C16 6.70201 16.2107 7.21071 16.5858 7.58579L17.8284 8.82843C18.5786 9.57857 19 10.596 19 11.6569V16C19 18.2091 17.2091 20 15 20H8.5" stroke="#061A3C" stroke-width="2"/>
<path d="M7 10.9458C9.33232 11.96 11.6646 11.96 13.9969 10.9458" stroke="#061A3C" stroke-width="2"/>
<path d="M7 15.0024C9.33232 16.0166 11.6646 16.0166 13.9969 15.0024" stroke="#061A3C" stroke-width="2"/>
<rect x="-1" y="1" width="3" height="9" transform="matrix(-1 0 0 1 21 9)" stroke="#061A3C" stroke-width="2"/>
</svg>
