<svg width="24" height="24" viewBox="0 0 24 24" fill="none" xmlns="http://www.w3.org/2000/svg">
<path fill-rule="evenodd" clip-rule="evenodd" d="M12 1L11.9847 1.00001C11.3382 1.00089 10.7047 1.05755 10.0889 1.16543C4.92472 2.07008 1 6.57671 1 12C1 17.4233 4.92472 21.9299 10.0889 22.8346C10.7096 22.9433 11.3482 23 12 23C12.6518 23 13.2904 22.9433 13.9111 22.8346L13.566 20.8646C13.0588 20.9534 12.5356 21 12 21C11.9223 21 11.8449 20.999 11.7677 20.9971C6.9045 20.8738 3 16.8929 3 12C3 7.02944 7.02944 3 12 3C12.5356 3 13.0588 3.04657 13.566 3.13543L13.9111 1.16543C13.2904 1.0567 12.6518 1 12 1ZM22.8346 13.9111L20.8646 13.566C20.9534 13.0588 21 12.5356 21 12C21 11.4644 20.9534 10.9412 20.8646 10.434L22.8346 10.0889C22.9433 10.7096 23 11.3482 23 12C23 12.6518 22.9433 13.2904 22.8346 13.9111ZM22.3394 8.23674L20.4601 8.92093C20.0982 7.92679 19.5651 7.013 18.8953 6.2156L20.4267 4.92924C21.2443 5.90251 21.8963 7.01946 22.3394 8.23674ZM19.0707 3.57326L17.7844 5.10469C16.987 4.4349 16.0732 3.90183 15.0791 3.53991L15.7633 1.66057C16.9805 2.10374 18.0975 2.75574 19.0707 3.57326ZM15.7633 22.3394L15.0791 20.4601C16.0732 20.0982 16.987 19.5651 17.7844 18.8953L19.0708 20.4267C18.0975 21.2443 16.9805 21.8963 15.7633 22.3394ZM20.4267 19.0708L18.8953 17.7844C19.5651 16.987 20.0982 16.0732 20.4601 15.0791L22.3394 15.7633C21.8963 16.9805 21.2443 18.0975 20.4267 19.0708ZM11 5V12L11.4 12.8L15.4 15.8L16.6 14.2L13 11.5V5H11Z" fill="#061A3C"/>
</svg>
