<svg width="24" height="24" viewBox="0 0 24 24" fill="none" xmlns="http://www.w3.org/2000/svg">
<path d="M1 18.9443C3.01584 20.273 5.35519 21 7.91854 21C16.2308 21 20.7602 14.0808 20.7602 8.08913V7.48746C21.6312 6.83565 22.4027 6.03343 23 5.13092C22.2036 5.4819 21.3077 5.75765 20.4117 5.83286C21.3326 5.28133 22.0543 4.37883 22.4027 3.35097C21.5068 3.85236 20.5362 4.20333 19.5407 4.42896C18.7194 3.55152 17.5249 3 16.2556 3C13.7421 3 11.7263 5.03065 11.7263 7.53761C11.7263 7.88859 11.776 8.23954 11.8507 8.56545C8.09278 8.36489 4.73304 6.58495 2.54299 3.82729C2.11992 4.50417 1.89595 5.28133 1.89595 6.10863C1.89595 7.71309 2.71719 9.09193 3.93664 9.89415C3.19004 9.86908 2.49321 9.69359 1.87104 9.34261V9.39276C1.87104 11.5738 3.43894 13.429 5.50455 13.8552C5.13124 13.9554 4.70813 14.0056 4.30994 14.0056C4.03619 14.0056 3.73757 13.9805 3.46382 13.9304C4.03621 15.7605 5.70363 17.039 7.69458 17.1142C6.1516 18.3175 4.18551 19.0195 2.07013 19.0195C1.72171 19.0195 1.34842 18.9944 1 18.9443Z" fill="#061A3C"/>
</svg>
