<svg width="24" height="24" viewBox="0 0 24 24" fill="none" xmlns="http://www.w3.org/2000/svg">
<path d="M4.40036 5.49994C3.10737 7.01023 2.25677 8.91049 2.04932 10.9999H10.9999V8.95057C8.36498 8.68895 6.03091 7.40453 4.40036 5.49994Z" fill="#061A3C"/>
<path d="M2.04932 12.9999C2.25677 15.0894 3.10737 16.9897 4.40036 18.4999C6.03091 16.5954 8.36498 15.3109 10.9999 15.0493V12.9999H2.04932Z" fill="#061A3C"/>
<path d="M19.5995 18.4999C20.8925 16.9897 21.7431 15.0894 21.9506 12.9999H12.9999V15.0493C15.6349 15.3109 17.969 16.5954 19.5995 18.4999Z" fill="#061A3C"/>
<path d="M21.9506 10.9999C21.7431 8.91049 20.8925 7.01023 19.5995 5.49994C17.969 7.40453 15.6349 8.68895 12.9999 8.95057V10.9999H21.9506Z" fill="#061A3C"/>
<path d="M18.1512 4.11511C16.8847 5.63648 15.0645 6.6806 12.9999 6.93805V2.04932C14.9316 2.24111 16.7016 2.98258 18.1512 4.11511Z" fill="#061A3C"/>
<path d="M10.9999 2.04932V6.93805C8.93539 6.6806 7.11515 5.63648 5.84865 4.11511C7.29829 2.98258 9.06826 2.24111 10.9999 2.04932Z" fill="#061A3C"/>
<path d="M18.1512 19.8848C16.7016 21.0173 14.9316 21.7588 12.9999 21.9506V17.0618C15.0645 17.3193 16.8847 18.3634 18.1512 19.8848Z" fill="#061A3C"/>
<path d="M10.9999 21.9506C9.06826 21.7588 7.29829 21.0173 5.84865 19.8848C7.11515 18.3634 8.93539 17.3193 10.9999 17.0618V21.9506Z" fill="#061A3C"/>
</svg>
