<svg width="24" height="24" viewBox="0 0 24 24" fill="none" xmlns="http://www.w3.org/2000/svg">
<path fill-rule="evenodd" clip-rule="evenodd" d="M22 12C22 14.4816 21.0961 16.752 19.5995 18.5001C19.1643 19.0084 18.679 19.4725 18.1512 19.8849C16.4548 21.2102 14.3196 22 12 22C9.68038 22 7.54519 21.2103 5.84874 19.8849C5.32096 19.4726 4.83567 19.0084 4.40047 18.5001C2.90392 16.752 2 14.4816 2 12C2 6.47715 6.47715 2 12 2C17.5228 2 22 6.47715 22 12ZM15.6857 19.1022C16.0272 18.9247 16.3542 18.7232 16.6646 18.5001C16.549 18.4169 16.4311 18.3368 16.311 18.2598C16.116 18.5618 15.9071 18.8434 15.6857 19.1022ZM16.3241 15.9808C15.3006 15.4892 14.1805 15.1667 13 15.0495V13H16.9605C16.8744 14.0805 16.6512 15.0871 16.3241 15.9808ZM17.2113 16.4636C17.6087 15.4219 17.8713 14.2495 17.9634 13H19.9381C19.7443 14.5542 19.1047 15.9699 18.1512 17.1152C17.8512 16.8808 17.5374 16.6631 17.2113 16.4636ZM17.9634 11H19.9381C19.7443 9.44586 19.1047 8.03016 18.1513 6.8849C17.8513 7.11935 17.5375 7.33703 17.2113 7.53655C17.6087 8.57828 17.8713 9.7506 17.9634 11ZM16.3111 5.74034C16.4312 5.66333 16.5492 5.5832 16.6648 5.50006C16.3544 5.27686 16.0273 5.07536 15.6857 4.89777C15.9071 5.15663 16.1161 5.43827 16.3111 5.74034ZM13 4.16698C13.8721 4.46041 14.7095 5.13904 15.4106 6.19074C15.4187 6.20288 15.4268 6.21506 15.4348 6.22729C14.6808 6.5863 13.8617 6.83077 13 6.93822V4.16698ZM8.31425 4.89777C7.97274 5.07536 7.64565 5.27686 7.33521 5.50005C7.45085 5.58319 7.5688 5.66332 7.68895 5.74033C7.88392 5.43826 8.09288 5.15663 8.31425 4.89777ZM8.56521 6.22728C8.57325 6.21506 8.58132 6.20288 8.58941 6.19074C9.29054 5.13904 10.1279 4.46041 11 4.16698V6.93822C10.1383 6.83077 9.31925 6.58629 8.56521 6.22728ZM6.78868 7.53654C6.46255 7.33702 6.14874 7.11934 5.84866 6.88489C4.89528 8.03016 4.25569 9.44586 4.06189 11H6.03662C6.1287 9.7506 6.39127 8.57827 6.78868 7.53654ZM7.03952 11C7.12557 9.91959 7.34876 8.91303 7.6758 8.01939C8.69933 8.51101 9.81947 8.83352 11 8.95074V11H7.03952ZM7.03952 13H11V15.0495C9.81949 15.1667 8.69938 15.4892 7.67587 15.9808C7.34879 15.0871 7.12557 14.0805 7.03952 13ZM6.03662 13C6.1287 14.2495 6.39131 15.4219 6.78875 16.4636C6.46264 16.6631 6.14884 16.8808 5.84878 17.1152C4.89533 15.97 4.2557 14.5542 4.06189 13H6.03662ZM7.68905 18.2598C7.56892 18.3368 7.45099 18.4169 7.33536 18.5001C7.64576 18.7232 7.9728 18.9247 8.31426 19.1022C8.09292 18.8434 7.884 18.5618 7.68905 18.2598ZM8.56532 17.7729C8.57333 17.7851 8.58136 17.7972 8.58941 17.8093C9.29054 18.861 10.1279 19.5396 11 19.833V17.062C10.1384 17.1695 9.31933 17.4139 8.56532 17.7729ZM13 19.833V17.062C13.8616 17.1694 14.6807 17.4139 15.4347 17.7729C15.4267 17.785 15.4186 17.7972 15.4106 17.8093C14.7095 18.861 13.8721 19.5396 13 19.833ZM16.3242 8.0194C16.6512 8.91304 16.8744 9.91959 16.9605 11H13V8.95074C14.1805 8.83353 15.3007 8.51101 16.3242 8.0194Z" fill="#061A3C"/>
</svg>
