<svg width="24" height="24" viewBox="0 0 24 24" fill="none" xmlns="http://www.w3.org/2000/svg">
<path d="M10.2447 14.6178C10.2447 13.2484 9.4967 12.2341 8.46611 11.7776C9.24736 11.3042 9.91226 10.3406 9.91226 9.17412C9.92888 7.21305 8.41624 5.79297 6.22209 5.79297C4.09442 5.79297 2.21609 7.24686 2.21609 9.66438H4.06118C4.06118 8.37955 5.00865 7.61879 6.22209 7.61879C7.25267 7.61879 8.08379 8.29502 8.06717 9.29246C8.05055 10.2899 7.28592 10.9999 6.12235 10.9999H5.1915V12.5891H6.12235C7.48539 12.5891 8.39962 13.2315 8.39962 14.4994C8.383 15.6659 7.46876 16.3421 6.28858 16.3421C4.95878 16.3421 3.9282 15.5476 3.82846 14.2289H2C2.04987 16.6465 3.97806 18.168 6.28858 18.168C8.63233 18.168 10.2447 16.731 10.2447 14.6178Z" fill="#18141F"/>
<path d="M11.7865 17.9989H15.4102C18.9175 17.9989 21.5937 15.3954 21.5937 11.9974C21.5937 8.59932 18.9175 5.99584 15.4102 5.99584H11.7865V17.9989ZM13.7314 16.1562V7.83856H15.4102C17.9368 7.83856 19.6157 9.64748 19.6157 11.9974C19.6157 14.3473 17.9368 16.1562 15.4102 16.1562H13.7314Z" fill="#18141F"/>
</svg>
