<svg width="24" height="24" viewBox="0 0 24 24" fill="none" xmlns="http://www.w3.org/2000/svg">
<path fill-rule="evenodd" clip-rule="evenodd" d="M20 12C20 12.6249 19.9284 13.233 19.7928 13.8166L21.8168 14.5654L21.1229 16.4412L19.0988 15.6924C18.6989 16.4595 18.1784 17.1537 17.5623 17.7499L18.7999 19.4L17.1999 20.6L15.9631 18.9509C15.0692 19.4617 14.0672 19.805 13 19.9381L13 9L19.4185 9L20 9H22V11H19.9381C19.979 11.3276 20 11.6613 20 12ZM18.2454 7C16.7792 5.17107 14.5264 4 12 4C9.47362 4 7.22075 5.17107 5.75463 7H11H13H18.2454ZM4.58152 9L4 9H2V11H4.06189C4.02104 11.3276 4 11.6613 4 12C4 12.6249 4.07164 13.233 4.20716 13.8166L2.18318 14.5654L2.87709 16.4412L4.90121 15.6924C5.30105 16.4595 5.82161 17.1537 6.43769 17.7499L5.2001 19.4L6.80011 20.6L8.03688 18.9509C8.9308 19.4617 9.93276 19.805 11 19.9381V9L4.58152 9Z" fill="#061A3C"/>
</svg>
