<svg width="24" height="24" viewBox="0 0 24 24" fill="none" xmlns="http://www.w3.org/2000/svg">
<path fill-rule="evenodd" clip-rule="evenodd" d="M2 4.65484V4V2H4H5.00201H10.002H14.002H19.002H20H22V4V4.65886V9.99799V13.6589V18.998V20V22H20H19.3452H13.6589H10.3452H4.65887H4H2V20V19.002V13.6548V10.002V4.65484ZM4 9.99799V4.65887L4.65887 4H10.3452L11.5 5.15484V9.5L9.5 11.5H5.50201L4 9.99799ZM4 13.6589L5.15887 12.5H9.84315L11.5 14.1569V18.502L10.002 20H5.00201L4 18.998V13.6589ZM14.002 20L12.5 18.498V14.1569L14.1569 12.5H18.8452L20 13.6548V19.002L19.002 20H14.002ZM20 10.002L18.502 11.5H14.5L12.5 9.5V5.15887L13.6589 4H19.3452L20 4.65484V10.002Z" fill="#18141F"/>
</svg>
