<svg width="24" height="24" viewBox="0 0 24 24" fill="none" xmlns="http://www.w3.org/2000/svg">
<path fill-rule="evenodd" clip-rule="evenodd" d="M7 0C7.55228 0 8 0.447715 8 1V3H16V1C16 0.447715 16.4477 0 17 0C17.5523 0 18 0.447715 18 1V1.75777C16.8825 2.5058 16.1188 3.74108 16.0127 5.15966C16.0043 5.10767 16 5.05434 16 5H8V6C8 6.55228 7.55228 7 7 7C6.44772 7 6 6.55228 6 6V5H4V19H20V9.97254C20.1642 9.99068 20.331 10 20.5 10C21.026 10 21.5308 9.90977 22 9.74394V21H2V3H6V1C6 0.447715 6.44772 0 7 0ZM16.7578 8C17.0864 8.49094 17.5091 8.9136 18 9.24223V10H6V8H16.7578Z" fill="#061A3C"/>
<circle cx="20.5" cy="5.5" r="2.5" fill="#061A3C"/>
</svg>
