<svg width="24" height="24" viewBox="0 0 24 24" fill="none" xmlns="http://www.w3.org/2000/svg">
<path fill-rule="evenodd" clip-rule="evenodd" d="M22 6H12V4H22V6Z" fill="#061A3C"/>
<path fill-rule="evenodd" clip-rule="evenodd" d="M22 13L12 13V11L22 11V13Z" fill="#061A3C"/>
<path fill-rule="evenodd" clip-rule="evenodd" d="M22 20L12 20V18L22 18V20Z" fill="#061A3C"/>
<path fill-rule="evenodd" clip-rule="evenodd" d="M9.70718 2.70706L4.50008 7.91417L1.29297 4.70706L2.70718 3.29285L4.50008 5.08574L8.29297 1.29285L9.70718 2.70706Z" fill="#061A3C"/>
<path fill-rule="evenodd" clip-rule="evenodd" d="M9.70718 9.70706L4.50008 14.9142L1.29297 11.7071L2.70718 10.2928L4.50008 12.0857L8.29297 8.29285L9.70718 9.70706Z" fill="#061A3C"/>
<path fill-rule="evenodd" clip-rule="evenodd" d="M9.70718 16.7071L4.50008 21.9142L1.29297 18.7071L2.70718 17.2928L4.50008 19.0857L8.29297 15.2928L9.70718 16.7071Z" fill="#061A3C"/>
</svg>
