<svg width="24" height="24" viewBox="0 0 24 24" fill="none" xmlns="http://www.w3.org/2000/svg">
<mask id="path-2-inside-1" fill="white">
<path fill-rule="evenodd" clip-rule="evenodd" d="M18 3H15V7H18V3ZM13 1V9H20V3C20 1.89543 19.1046 1 18 1H13Z"/>
</mask>
<path fill-rule="evenodd" clip-rule="evenodd" d="M18 3H15V7H18V3ZM13 1V9H20V3C20 1.89543 19.1046 1 18 1H13Z" fill="#061A3C"/>
<path d="M15 3V1H13V3H15ZM18 3H20V1H18V3ZM15 7H13V9H15V7ZM18 7V9H20V7H18ZM13 1V-1H11V1H13ZM13 9H11V11H13V9ZM20 9V11H22V9H20ZM15 5H18V1H15V5ZM17 7V3H13V7H17ZM18 5H15V9H18V5ZM16 3V7H20V3H16ZM18 3H22C22 0.790861 20.2091 -1 18 -1V3ZM13 3H18V-1H13V3ZM15 9V1H11V9H15ZM20 7H13V11H20V7ZM18 3V9H22V3H18Z" fill="#061A3C" mask="url(#path-2-inside-1)"/>
<path fill-rule="evenodd" clip-rule="evenodd" d="M0 6C0 4.34315 1.34315 3 3 3H15V9H0V6ZM3 5C2.44772 5 2 5.44772 2 6V7H13V5H3Z" fill="#061A3C"/>
<path fill-rule="evenodd" clip-rule="evenodd" d="M13 7H19V22H13V7ZM15 9V20H17V9H15Z" fill="#061A3C"/>
<path d="M19 4H23V9H19V4Z" fill="#061A3C"/>
<path d="M3 11H8V16H3V11Z" fill="#061A3C"/>
</svg>
