<svg width="24" height="24" viewBox="0 0 24 24" fill="none" xmlns="http://www.w3.org/2000/svg">
<mask id="path-2-inside-1" fill="white">
<path fill-rule="evenodd" clip-rule="evenodd" d="M2 4H10V6H4V10H2V4ZM20 6H14V4H22V10H20V6ZM4 18V14H2V20H10V18H4ZM20 18V14H22V20H14V18H20Z"/>
</mask>
<path fill-rule="evenodd" clip-rule="evenodd" d="M2 4H10V6H4V10H2V4ZM20 6H14V4H22V10H20V6ZM4 18V14H2V20H10V18H4ZM20 18V14H22V20H14V18H20Z" fill="#061A3C"/>
<path d="M2 4V2H0V4H2ZM10 4H12V2H10V4ZM10 6V8H12V6H10ZM4 6V4H2V6H4ZM4 10V12H6V10H4ZM2 10H0V12H2V10ZM14 6H12V8H14V6ZM20 6H22V4H20V6ZM14 4V2H12V4H14ZM22 4H24V2H22V4ZM22 10V12H24V10H22ZM20 10H18V12H20V10ZM4 18H2V20H4V18ZM4 14H6V12H4V14ZM2 14V12H0V14H2ZM2 20H0V22H2V20ZM10 20V22H12V20H10ZM10 18H12V16H10V18ZM20 14V12H18V14H20ZM20 18V20H22V18H20ZM22 14H24V12H22V14ZM22 20V22H24V20H22ZM14 20H12V22H14V20ZM14 18V16H12V18H14ZM12 6V4H8V6H12ZM4 8H10V4H4V8ZM6 10V6H2V10H6ZM2 12H4V8H2V12ZM14 8H20V4H14V8ZM12 4V6H16V4H12ZM20 12H22V8H20V12ZM18 6V10H22V6H18ZM6 18V14H2V18H6ZM4 12H2V16H4V12ZM12 20V18H8V20H12ZM10 16H4V20H10V16ZM18 14V18H22V14H18ZM22 12H20V16H22V12ZM12 18V20H16V18H12ZM20 16H14V20H20V16ZM10 2H2V6H10V2ZM0 4V10H4V4H0ZM22 2H14V6H22V2ZM24 10V4H20V10H24ZM0 14V20H4V14H0ZM2 22H10V18H2V22ZM24 20V14H20V20H24ZM14 22H22V18H14V22Z" fill="#061A3C" mask="url(#path-2-inside-1)"/>
</svg>
