<svg width="24" height="24" viewBox="0 0 24 24" fill="none" xmlns="http://www.w3.org/2000/svg">
<path d="M2.63752 4.55689C2 5.69527 2 7.21351 2 10.25V13.75C2 16.7865 2 18.3047 2.63752 19.4431C3.08808 20.2476 3.75236 20.9119 4.55689 21.3625C5.69527 22 7.21351 22 10.25 22H13.75C13.848 22 13.9445 22 14.0394 22H11.2213V14.4257H8.94275V11.566H11.2593V9.55648C11.2593 7.12188 12.7403 5.75 14.886 5.75C15.9303 5.75 16.8228 5.84661 17.0886 5.88526V8.43579H15.5885C14.3923 8.43579 14.1834 9.01545 14.1834 9.84631V11.566H16.9747L16.5949 14.4257H14.1834V21.9999C16.9336 21.9985 18.3602 21.9689 19.4431 21.3625C20.2476 20.9119 20.9119 20.2476 21.3625 19.4431C22 18.3047 22 16.7865 22 13.75V10.25C22 7.21351 22 5.69527 21.3625 4.55689C20.9119 3.75236 20.2476 3.08808 19.4431 2.63752C18.3047 2 16.7865 2 13.75 2H10.25C7.21351 2 5.69527 2 4.55689 2.63752C3.75236 3.08808 3.08808 3.75236 2.63752 4.55689Z" fill="#061A3C"/>
</svg>
