<svg width="24" height="24" viewBox="0 0 24 24" fill="none" xmlns="http://www.w3.org/2000/svg">
<g clip-path="url(#clip0)">
<path fill-rule="evenodd" clip-rule="evenodd" d="M9 6L11.9999 0L15 5.99998L13 5.33335V7H11V5.33333L9 6ZM5.33335 9L5.99998 6.99997L0 10.0001L6 13L5.33333 11H9V9H5.33335ZM7.08569 17.4143L7 17.5L13.5 24H20V17L19.1 15.8C18.7223 15.2964 18.1295 15 17.5 15H13V10C13 9.44771 12.5523 9 12 9C11.4477 9 11 9.44771 11 10V18.5001L9.91416 17.4143C9.13309 16.6332 7.86673 16.6332 7.08569 17.4143ZM15 11H18.6667L18 13L24 9.99994L18 7L18.6667 9H15V11Z" fill="#061A3C"/>
</g>
<defs>
<clipPath id="clip0">
<path d="M0 0H24V24H0V0Z" fill="white"/>
</clipPath>
</defs>
</svg>
