<svg width="24" height="24" viewBox="0 0 24 24" fill="none" xmlns="http://www.w3.org/2000/svg">
<path fill-rule="evenodd" clip-rule="evenodd" d="M22.7442 10H12.2558V14.25H18.293C17.7302 16.95 15.3767 18.5 12.2558 18.5C8.57209 18.5 5.60465 15.6 5.60465 12C5.60465 8.4 8.57209 5.5 12.2558 5.5C13.8419 5.5 15.2744 6.05 16.4 6.95L19.6744 3.75C17.6791 2.05 15.1209 1 12.2558 1C6.01395 1 1 5.9 1 12C1 18.1 6.01395 23 12.2558 23C17.8837 23 23 19 23 12C23 11.35 22.8977 10.65 22.7442 10Z" fill="#061A3C"/>
</svg>
