<svg width="24" height="24" viewBox="0 0 24 24" fill="none" xmlns="http://www.w3.org/2000/svg">
<path d="M7 19H9V22H7V19Z" fill="white"/>
<mask id="path-3-inside-1" fill="white">
<path fill-rule="evenodd" clip-rule="evenodd" d="M10 4H20V20H14V22H22V2H8V10L10 11.4524V4Z"/>
</mask>
<path fill-rule="evenodd" clip-rule="evenodd" d="M10 4H20V20H14V22H22V2H8V10L10 11.4524V4Z" fill="#061A3C"/>
<path d="M20 4H22V2H20V4ZM10 4V2H8V4H10ZM20 20V22H22V20H20ZM14 20V18H12V20H14ZM14 22H12V24H14V22ZM22 22V24H24V22H22ZM22 2H24V0H22V2ZM8 2V0H6V2H8ZM8 10H6V11.0193L6.8248 11.6183L8 10ZM10 11.4524L8.8248 13.0707L12 15.3765V11.4524H10ZM20 2H10V6H20V2ZM22 20V4H18V20H22ZM14 22H20V18H14V22ZM12 20V22H16V20H12ZM14 24H22V20H14V24ZM24 22V2H20V22H24ZM22 0H8V4H22V0ZM6 2V10H10V2H6ZM6.8248 11.6183L8.8248 13.0707L11.1752 9.83408L9.1752 8.3817L6.8248 11.6183ZM8 4V11.4524H12V4H8Z" fill="#061A3C" mask="url(#path-3-inside-1)"/>
<mask id="path-5-inside-2" fill="white">
<path fill-rule="evenodd" clip-rule="evenodd" d="M4 15.3642V20H12V15.3765L7.99807 12.4703L4 15.3642ZM8 10L2 14.3429V22H14V14.3571L8 10Z"/>
</mask>
<path fill-rule="evenodd" clip-rule="evenodd" d="M4 15.3642V20H12V15.3765L7.99807 12.4703L4 15.3642ZM8 10L2 14.3429V22H14V14.3571L8 10Z" fill="white"/>
<path d="M4 20H2V22H4V20ZM4 15.3642L2.82733 13.744L2 14.3429V15.3642H4ZM12 20V22H14V20H12ZM12 15.3765H14V14.3571L13.1752 13.7582L12 15.3765ZM7.99807 12.4703L9.17327 10.852L8 10L6.8254 10.8502L7.99807 12.4703ZM2 14.3429L0.82733 12.7227L0 13.3215V14.3429H2ZM8 10L9.1752 8.3817L8.00193 7.52968L6.82733 8.37986L8 10ZM2 22H0V24H2V22ZM14 22V24H16V22H14ZM14 14.3571H16V13.3378L15.1752 12.7388L14 14.3571ZM6 20V15.3642H2V20H6ZM12 18H4V22H12V18ZM10 15.3765V20H14V15.3765H10ZM6.82287 14.0886L10.8248 16.9948L13.1752 13.7582L9.17327 10.852L6.82287 14.0886ZM5.17267 16.9843L9.17074 14.0905L6.8254 10.8502L2.82733 13.744L5.17267 16.9843ZM3.17267 15.963L9.17267 11.6201L6.82733 8.37986L0.82733 12.7227L3.17267 15.963ZM6.8248 11.6183L12.8248 15.9754L15.1752 12.7388L9.1752 8.3817L6.8248 11.6183ZM4 22V14.3429H0V22H4ZM14 20H2V24H14V20ZM12 14.3571V22H16V14.3571H12Z" fill="#061A3C" mask="url(#path-5-inside-2)"/>
<path d="M7 17H9V20H7V17Z" fill="#061A3C"/>
<path d="M18 8L10 8L10 6L18 6L18 8Z" fill="#061A3C"/>
<path d="M18 11.5L10 11.5L10 9.5L18 9.5L18 11.5Z" fill="#061A3C"/>
<path d="M18 15L12 15L12 13L18 13L18 15Z" fill="#061A3C"/>
<path d="M16 20L14 20L14 17L16 17L16 20Z" fill="#061A3C"/>
</svg>
