<svg width="24" height="24" viewBox="0 0 24 24" fill="none" xmlns="http://www.w3.org/2000/svg">
<mask id="path-2-inside-1" fill="white">
<path fill-rule="evenodd" clip-rule="evenodd" d="M4 10.2594V20H20V10.2812L11.9981 4.47032L4 10.2594ZM12 2L2 9.23809V22H22V9.26191L12 2Z"/>
</mask>
<path fill-rule="evenodd" clip-rule="evenodd" d="M4 10.2594V20H20V10.2812L11.9981 4.47032L4 10.2594ZM12 2L2 9.23809V22H22V9.26191L12 2Z" fill="#061A3C"/>
<path d="M4 20H2V22H4V20ZM4 10.2594L2.82733 8.63926L2 9.23809V10.2594H4ZM20 20V22H22V20H20ZM20 10.2812H22V9.26191L21.1752 8.66294L20 10.2812ZM11.9981 4.47032L13.1733 2.85202L12 2L10.8254 2.85018L11.9981 4.47032ZM2 9.23809L0.82733 7.61795L0 8.21678V9.23809H2ZM12 2L13.1752 0.381695L12.0019 -0.470322L10.8273 0.379863L12 2ZM2 22H0V24H2V22ZM22 22V24H24V22H22ZM22 9.26191H24V8.24256L23.1752 7.6436L22 9.26191ZM6 20V10.2594H2V20H6ZM20 18H4V22H20V18ZM18 10.2812V20H22V10.2812H18ZM10.8229 6.08863L18.8248 11.8996L21.1752 8.66294L13.1733 2.85202L10.8229 6.08863ZM5.17267 11.8795L13.1707 6.09046L10.8254 2.85018L2.82733 8.63926L5.17267 11.8795ZM3.17267 10.8582L13.1727 3.62014L10.8273 0.379863L0.82733 7.61795L3.17267 10.8582ZM10.8248 3.6183L20.8248 10.8802L23.1752 7.6436L13.1752 0.381695L10.8248 3.6183ZM4 22V9.23809H0V22H4ZM22 20H2V24H22V20ZM20 9.26191V22H24V9.26191H20Z" fill="#061A3C" mask="url(#path-2-inside-1)"/>
<path d="M7 12.9345C7 13.7202 7.33334 14.4249 7.84524 14.9332L12 19L15.9762 15.1065C16.5595 14.5404 17 13.801 17 12.9345C17 11.3402 15.6905 10.0231 14.1429 10.0231C13.25 10.0231 12.5357 10.4968 12 10.9936C11.4881 10.4968 10.9048 10 9.80953 10C8.36905 10 7 11.3402 7 12.9345Z" fill="#061A3C"/>
</svg>
