<svg width="24" height="24" viewBox="0 0 24 24" fill="none" xmlns="http://www.w3.org/2000/svg">
<path fill-rule="evenodd" clip-rule="evenodd" d="M4 8H12V14.5857L9.41429 12C8.63324 11.2189 7.36691 11.2189 6.58586 12L4 14.5858V8ZM8.00008 13.4142L10.5859 16H5.41426L8.00008 13.4142ZM4 15.9999L4.00011 16H4V15.9999ZM2 18V6H14V18H2ZM16 6H22V8H16V6ZM22 11H16V13H22V11ZM22 16H16V18H22V16ZM10 11C10.5523 11 11 10.5523 11 10C11 9.44771 10.5523 9 10 9C9.44771 9 9 9.44771 9 10C9 10.5523 9.44771 11 10 11Z" fill="#061A3C"/>
</svg>
