<svg width="25" height="24" viewBox="0 0 25 24" fill="none" xmlns="http://www.w3.org/2000/svg">
<g clip-path="url(#clip0)">
<mask id="path-2-inside-1" fill="white">
<path fill-rule="evenodd" clip-rule="evenodd" d="M11.7986 15.4369C10.7138 16.9866 8.91518 18 6.87988 18C3.56617 18 0.879883 15.3137 0.879883 12C0.879883 8.68629 3.56617 6 6.87988 6C9.10073 6 11.0398 7.20659 12.0772 9L21.8799 8.99997L24.8799 12L20.8799 16L18.8799 15L16.8799 16L14.8799 15L12.8799 16L11.7986 15.4369Z"/>
</mask>
<path d="M11.7986 15.4369L12.7225 13.663L11.1664 12.8526L10.1602 14.2899L11.7986 15.4369ZM12.0772 9L10.346 10.0015L10.9236 11L12.0772 11L12.0772 9ZM21.8799 8.99997L23.2941 7.58576L22.7083 6.99997L21.8799 6.99997L21.8799 8.99997ZM24.8799 12L26.2941 13.4142L27.7083 12L26.2941 10.5858L24.8799 12ZM20.8799 16L19.9855 17.7889L21.2748 18.4335L22.2941 17.4142L20.8799 16ZM18.8799 15L19.7743 13.2111L18.8799 12.7639L17.9855 13.2111L18.8799 15ZM16.8799 16L15.9855 17.7889L16.8799 18.2361L17.7743 17.7889L16.8799 16ZM14.8799 15L15.7743 13.2111L14.8799 12.7639L13.9855 13.2111L14.8799 15ZM12.8799 16L11.956 17.7738L12.8613 18.2453L13.7743 17.7889L12.8799 16ZM10.1602 14.2899C9.43355 15.3279 8.23506 16 6.87988 16V20C9.59529 20 11.994 18.6453 13.4371 16.5838L10.1602 14.2899ZM6.87988 16C4.67074 16 2.87988 14.2091 2.87988 12H-1.12012C-1.12012 16.4183 2.4616 20 6.87988 20V16ZM2.87988 12C2.87988 9.79086 4.67074 8 6.87988 8V4C2.4616 4 -1.12012 7.58172 -1.12012 12H2.87988ZM6.87988 8C8.35793 8 9.65134 8.80063 10.346 10.0015L13.8084 7.99854C12.4282 5.61256 9.84353 4 6.87988 4V8ZM21.8799 6.99997L12.0772 7L12.0772 11L21.8799 11L21.8799 6.99997ZM26.2941 10.5858L23.2941 7.58576L20.4657 10.4142L23.4657 13.4142L26.2941 10.5858ZM22.2941 17.4142L26.2941 13.4142L23.4657 10.5858L19.4657 14.5858L22.2941 17.4142ZM17.9855 16.7889L19.9855 17.7889L21.7743 14.2111L19.7743 13.2111L17.9855 16.7889ZM17.7743 17.7889L19.7743 16.7889L17.9855 13.2111L15.9855 14.2111L17.7743 17.7889ZM13.9855 16.7889L15.9855 17.7889L17.7743 14.2111L15.7743 13.2111L13.9855 16.7889ZM13.7743 17.7889L15.7743 16.7889L13.9855 13.2111L11.9855 14.2111L13.7743 17.7889ZM10.8748 17.2107L11.956 17.7738L13.8037 14.2262L12.7225 13.663L10.8748 17.2107Z" fill="#061A3C" mask="url(#path-2-inside-1)"/>
<circle cx="5.87988" cy="12" r="1" fill="#061A3C"/>
</g>
<defs>
<clipPath id="clip0">
<path d="M0.879883 0H24.8799V24H0.879883V0Z" fill="white"/>
</clipPath>
</defs>
</svg>
