<svg width="24" height="24" viewBox="0 0 24 24" fill="none" xmlns="http://www.w3.org/2000/svg">
<path fill-rule="evenodd" clip-rule="evenodd" d="M20 6H4V12.2967L7.46543 8.25372C8.27449 7.30982 9.73955 7.32492 10.529 8.2853L15.1332 13.8866L16.6582 12.6157C17.4529 11.9534 18.6214 12.0064 19.3528 12.7379L20 13.3851V6ZM4 18V15.3699L8.98395 9.5553L14.8668 16.7121L17.9386 14.1521L20 16.2135V18H4ZM2 4V20H22V4H2ZM18 9C18 10.1046 17.1046 11 16 11C14.8954 11 14 10.1046 14 9C14 7.89543 14.8954 7 16 7C17.1046 7 18 7.89543 18 9Z" fill="#061A3C"/>
</svg>
