<svg width="24" height="24" viewBox="0 0 24 24" fill="none" xmlns="http://www.w3.org/2000/svg">
<path fill-rule="evenodd" clip-rule="evenodd" d="M5.9998 6.43372L1.48526 9.14244L0.0561053 9.99993L1.48526 10.8574L3.43561 12.0276L0.0209961 13.9788L11.9997 21.1661L23.8692 14.0444L20.7114 11.9391L22.5143 10.8574L23.9434 9.99993L22.5143 9.14244L17.9998 6.43377V8.76615L20.0561 9.99993L11.9998 14.8337L3.94341 9.99993L5.9998 8.7661V6.43372ZM12.5143 16.8574L18.8137 13.0777L20.1302 13.9554L11.9997 18.8337L3.97846 14.0209L5.40201 13.2075L11.4853 16.8574L11.9998 17.1661L12.5143 16.8574Z" fill="#061A3C"/>
<path d="M9.0105 11H10.7505V7.412H11.1825L14.0985 11H16.1985L13.1385 7.22C14.2665 6.86 14.8905 6.14 14.8905 5C14.8905 3.584 13.8705 2.48 12.2745 2.48H9.0105V11ZM10.7505 5.924V4.076H12.0705C12.7185 4.076 13.1625 4.412 13.1625 5C13.1625 5.576 12.7185 5.924 12.0705 5.924H10.7505Z" fill="#061A3C"/>
</svg>
