<svg width="24" height="24" viewBox="0 0 24 24" fill="none" xmlns="http://www.w3.org/2000/svg">
<path fill-rule="evenodd" clip-rule="evenodd" d="M5.9998 6.43372L1.48526 9.14244L0.0561053 9.99993L1.48526 10.8574L3.43561 12.0276L0.0209961 13.9788L11.9997 21.1661L23.8692 14.0444L20.7114 11.9391L22.5143 10.8574L23.9434 9.99993L22.5143 9.14244L17.9998 6.43377V8.76615L20.0561 9.99993L11.9998 14.8337L3.94341 9.99993L5.9998 8.7661V6.43372ZM12.5143 16.8574L18.8137 13.0777L20.1302 13.9554L11.9997 18.8337L3.97846 14.0209L5.40201 13.2075L11.4853 16.8574L11.9998 17.1661L12.5143 16.8574Z" fill="#061A3C"/>
<path d="M11.5966 11H13.2406V2.48H10.9966L9.79659 4.1H11.5966V11Z" fill="#061A3C"/>
</svg>
