<svg width="100" height="100" viewBox="0 0 100 100" fill="none" xmlns="http://www.w3.org/2000/svg">
<rect x="7" y="10" width="86" height="80" fill="#18141F"/>
<path fill-rule="evenodd" clip-rule="evenodd" d="M26 30C29.3137 30 32 27.3137 32 24C32 20.6863 29.3137 18 26 18C22.6863 18 20 20.6863 20 24C20 27.3137 22.6863 30 26 30ZM35.5 33L38.5 53H34.9878L31.5 37L33.5 82H28.5L26 55L23 82H18L20 37L17.5122 53H14L16.3415 33H35.5Z" fill="white"/>
<path fill-rule="evenodd" clip-rule="evenodd" d="M53 30C56.3137 30 59 27.3137 59 24C59 20.6863 56.3137 18 53 18C49.6863 18 47 20.6863 47 24C47 27.3137 49.6863 30 53 30ZM62.5 33L65.5 53H61.9878L58.5 37L60.5 82H55.5L53 55L50 82H45L47 37L44.5122 53H41L43.3415 33H62.5ZM68 45L77 32L86 45H68ZM77 69L68 56H86L77 69Z" fill="white"/>
</svg>
