<svg width="24" height="24" viewBox="0 0 24 24" fill="none" xmlns="http://www.w3.org/2000/svg">
<path d="M21.9999 14.5389V22.0223H17.6615V15.0401C17.6615 13.2861 17.034 12.089 15.4636 12.089C14.2648 12.089 13.5514 12.8958 13.2376 13.6761C13.1231 13.9551 13.0937 14.3434 13.0937 14.7339V22.0223H8.75377C8.75377 22.0223 8.81222 10.1967 8.75377 8.97146H13.0932V10.8214C13.0844 10.8352 13.073 10.8501 13.0647 10.8635H13.0932V10.8214C13.6698 9.93338 14.6994 8.66486 17.0041 8.66486C19.8594 8.66481 21.9999 10.5302 21.9999 14.5389ZM4.21407 2.6803C2.7294 2.6803 1.7583 3.65412 1.7583 4.93474C1.7583 6.18745 2.7013 7.19083 4.15646 7.19083H4.18545C5.69888 7.19083 6.64009 6.18763 6.64009 4.93474C6.61157 3.65412 5.69888 2.6803 4.21407 2.6803ZM2.01605 22.0223H6.35429V8.97146H2.01605V22.0223Z" fill="#061A3C"/>
</svg>
