<svg width="24" height="24" viewBox="0 0 24 24" fill="none" xmlns="http://www.w3.org/2000/svg">
<path fill-rule="evenodd" clip-rule="evenodd" d="M1.29297 2.70706L21.293 22.7071L22.7072 21.2928L21 19.5857V17.5H24V9H22V5H6.41434L2.70718 1.29285L1.29297 2.70706ZM8.41434 7L11 9.58566V7H8.41434ZM14.4143 13L16.9143 15.5H22V11H20V7H13V11H20V13H14.4143ZM18.9143 17.5L19 17.5857V17.5H18.9143ZM6.23235 11L8.23235 13H4V11H6.23235ZM4 8.76765V11H2V15.5H10.7324L12.7324 17.5H5V20H3V17.5H0V9H2V6.76764L4 8.76765Z" fill="#18141F"/>
</svg>
