<svg width="24" height="24" viewBox="0 0 24 24" fill="none" xmlns="http://www.w3.org/2000/svg">
<path fill-rule="evenodd" clip-rule="evenodd" d="M10.5 16C7.46243 16 5 13.5376 5 10.5C5 7.46243 7.46243 5 10.5 5C13.5376 5 16 7.46243 16 10.5C16 13.5376 13.5376 16 10.5 16ZM10.5 18C6.35786 18 3 14.6421 3 10.5C3 6.35786 6.35786 3 10.5 3C14.6421 3 18 6.35786 18 10.5C18 14.6421 14.6421 18 10.5 18Z" fill="#061A3C"/>
<path fill-rule="evenodd" clip-rule="evenodd" d="M21.707 20.2928L15.707 14.2928L14.2928 15.7071L20.2928 21.7071L21.707 20.2928Z" fill="#061A3C"/>
</svg>
