<svg width="24" height="24" viewBox="0 0 24 24" fill="none" xmlns="http://www.w3.org/2000/svg">
<path fill-rule="evenodd" clip-rule="evenodd" d="M10.428 4.45482C7.22699 5.56195 5 8.55964 5 11.9931C5 16.3797 8.6333 20 13.1822 20C15.0934 20 16.8421 19.3598 18.229 18.2875C12.5496 16.2909 9.11696 10.3056 10.428 4.45482ZM11.1862 2.18685C6.47517 3.09241 3 7.17817 3 11.9931C3 17.5169 7.56163 22 13.1822 22C16.1017 22 18.7232 20.7926 20.5767 18.8583C21.1215 18.2898 21.5999 17.6585 22 16.9766C21.2374 16.9516 20.5044 16.8477 19.8066 16.6744C14.2108 15.2847 10.8752 9.43089 12.623 4.01686C12.8427 3.33648 13.1426 2.66304 13.5284 2.00629C12.7222 1.97873 11.9385 2.04224 11.1862 2.18685Z" fill="#18141F"/>
</svg>
