<svg width="24" height="24" viewBox="0 0 24 24" fill="none" xmlns="http://www.w3.org/2000/svg">
<path fill-rule="evenodd" clip-rule="evenodd" d="M14.7931 3.79291C16.5643 2.02167 19.4361 2.02167 21.2073 3.7929C22.9785 5.56414 22.9785 8.43588 21.2073 10.2071L10.7073 20.7071L9.29308 19.2929L19.7931 8.79291C20.7833 7.80272 20.7833 6.19731 19.7931 5.20712C18.8029 4.21693 17.1975 4.21693 16.2073 5.20712L3.9573 17.4571C3.65746 17.757 3.65746 18.2431 3.9573 18.5429C4.25713 18.8427 4.74325 18.8427 5.04308 18.5429L17.2931 6.2929L18.7073 7.70712L6.4573 19.9571C5.37642 21.038 3.62396 21.038 2.54308 19.9571C1.4622 18.8762 1.4622 17.1238 2.54308 16.0429L14.7931 3.79291Z" fill="#061A3C"/>
</svg>
