<svg width="24" height="24" viewBox="0 0 24 24" fill="none" xmlns="http://www.w3.org/2000/svg">
<g clip-path="url(#clip0)">
<path fill-rule="evenodd" clip-rule="evenodd" d="M6 14H24V22H6V14ZM8 16V20H22V16H8Z" fill="#061A3C"/>
<path fill-rule="evenodd" clip-rule="evenodd" d="M15 11C12.2433 11 10 8.80243 10 6.01666C10 3.2599 12.2143 1 15 1C17.7857 1 20 3.2599 20 6.01666C20 8.82638 17.7493 11 15 11ZM12 6.01666C12 7.68333 13.3333 9 15 9C16.6667 9 18 7.7 18 6.01666C18 4.35 16.6667 3 15 3C13.3333 3 12 4.35 12 6.01666Z" fill="#061A3C"/>
<path fill-rule="evenodd" clip-rule="evenodd" d="M3 11V3H5V11H3Z" fill="#061A3C"/>
<path fill-rule="evenodd" clip-rule="evenodd" d="M4.76837e-07 6L8 6V8H4.76837e-07V6Z" fill="#061A3C"/>
</g>
<defs>
<clipPath id="clip0">
<path d="M0 0H24V24H0V0Z" fill="white"/>
</clipPath>
</defs>
</svg>
