<svg width="24" height="24" viewBox="0 0 24 24" fill="none" xmlns="http://www.w3.org/2000/svg">
<path fill-rule="evenodd" clip-rule="evenodd" d="M10 11C7.22222 11 5 8.80555 5 6.02777C5 3.24999 7.22222 1 10 1C12.0028 1 13.7168 2.16968 14.5173 3.86352C14.5495 3.93162 14.5802 4.00056 14.6094 4.07031C14.8611 4.67187 15 5.33333 15 6.02777C15 7.31598 14.5315 8.46949 13.7558 9.34041C12.8421 10.3662 11.5023 11 10 11ZM18 22H1V14H18V22ZM23 22H20V14H23V22ZM17 11C16.3901 11 15.8121 10.8635 15.2948 10.6194C16.3569 9.40431 17 7.80737 17 6.02777C17 4.96598 16.7661 3.95753 16.3462 3.05317C16.559 3.01819 16.7774 3 17 3C19.2091 3 21 4.79086 21 7C21 9.20914 19.2091 11 17 11Z" fill="#061A3C"/>
</svg>
