<svg width="24" height="24" viewBox="0 0 24 24" fill="none" xmlns="http://www.w3.org/2000/svg">
<path fill-rule="evenodd" clip-rule="evenodd" d="M2.35683 15.0309L6.31099 11.0786L10.079 14.8466L9.39681 15.5378C10.7431 17.34 10.6309 19.9869 8.94806 21.6483C7.12496 23.4223 4.20799 23.4786 2.35683 21.6483C0.533726 19.8461 0.561774 16.8331 2.35683 15.0309ZM13.3254 11.5575L15.5112 9.34283C17.3624 10.7508 19.9428 10.5818 21.6537 8.94861C23.4488 7.09012 23.4488 4.13343 21.6537 2.33126C19.8026 0.472774 17.0258 0.641727 15.0625 2.33126L9.57953 7.81164L3.88398 2.11609L2.11621 3.88386L20.1162 21.8839L21.884 20.1161L13.3254 11.5575Z" fill="#061A3C"/>
</svg>
