<svg width="24" height="24" viewBox="0 0 24 24" fill="none" xmlns="http://www.w3.org/2000/svg">
<path fill-rule="evenodd" clip-rule="evenodd" d="M1.29297 2.70706L21.293 22.7071L22.7072 21.2928L18.7198 17.3055L22.4142 13.6111L10.8031 2H3.41434L2.70718 1.29285L2.00003 2H2V2.00003L1.29297 2.70706ZM5.41434 4L7.48205 6.06772C7.64725 6.02355 7.82088 6 8 6C9.10457 6 10 6.89543 10 8C10 8.17912 9.97645 8.35275 9.93228 8.51795L17.3056 15.8913L19.5858 13.6111L9.97468 4H5.41434ZM2 10.8031V6.76764L4 8.76765V9.97468L13.6111 19.5858L14.2146 18.9823L15.6288 20.3965L13.6111 22.4142L2 10.8031Z" fill="#18141F"/>
</svg>
