<svg width="24" height="24" viewBox="0 0 24 24" fill="none" xmlns="http://www.w3.org/2000/svg">
<path fill-rule="evenodd" clip-rule="evenodd" d="M12.4584 14.1854H10.9373V13.9227C10.9373 13.1483 11.5457 12.5398 12.168 12.0973C12.2227 12.0576 12.2765 12.019 12.3292 11.9812C12.9557 11.5315 13.4264 11.1937 13.4264 10.4794C13.4264 9.67731 12.8318 9.09651 12.0021 9.09651C11.117 9.09651 10.4118 9.70497 10.4118 10.6453H8.89062C8.89062 8.97206 10.232 7.60303 12.0021 7.60303C13.7721 7.60303 14.9475 8.93057 14.9475 10.4241C14.9475 11.558 14.3667 12.2909 13.5923 12.8717C13.5115 12.9337 13.4317 12.9934 13.3542 13.0515C12.8611 13.4206 12.4584 13.722 12.4584 14.1163V14.1854ZM11.684 15.2917C12.3478 15.2917 12.8871 15.8449 12.8871 16.4948C12.8871 17.1586 12.3478 17.6979 11.684 17.6979C11.0341 17.6979 10.4947 17.1586 10.4947 16.4948C10.4947 15.8449 11.0341 15.2917 11.684 15.2917Z" fill="#061A3C"/>
<path fill-rule="evenodd" clip-rule="evenodd" d="M12 21C16.9706 21 21 16.9706 21 12C21 7.02944 16.9706 3 12 3C7.02944 3 3 7.02944 3 12C3 16.9706 7.02944 21 12 21ZM12 23C18.0751 23 23 18.0751 23 12C23 5.92487 18.0751 1 12 1C5.92487 1 1 5.92487 1 12C1 18.0751 5.92487 23 12 23Z" fill="#061A3C"/>
</svg>
