<svg width="24" height="24" viewBox="0 0 24 24" fill="none" xmlns="http://www.w3.org/2000/svg">
<path fill-rule="evenodd" clip-rule="evenodd" d="M12 1C5.92381 1 1 5.89762 1 11.9738C1 18.0762 5.92381 23 12 23C18.1024 23 23 18.0762 23 11.9738C23 5.89762 18.1024 1 12 1ZM12.4583 14.1855H10.9371V13.9227C10.9371 13.1483 11.5456 12.5399 12.1679 12.0974C12.2226 12.0577 12.2764 12.0191 12.3291 11.9813C12.9556 11.5316 13.4263 11.1937 13.4263 10.4794C13.4263 9.67736 12.8317 9.09656 12.0019 9.09656C11.1169 9.09656 10.4117 9.70502 10.4117 10.6454H8.89052C8.89052 8.9721 10.2319 7.60307 12.0019 7.60307C13.772 7.60307 14.9474 8.93062 14.9474 10.4241C14.9474 11.558 14.3666 12.291 13.5922 12.8718C13.5114 12.9338 13.4316 12.9935 13.3541 13.0515C12.861 13.4206 12.4583 13.722 12.4583 14.1163V14.1855ZM11.6839 15.2918C12.3477 15.2918 12.887 15.8449 12.887 16.4948C12.887 17.1586 12.3477 17.6979 11.6839 17.6979C11.0339 17.6979 10.4946 17.1586 10.4946 16.4948C10.4946 15.8449 11.0339 15.2918 11.6839 15.2918Z" fill="#061A3C"/>
</svg>
