<svg width="24" height="24" viewBox="0 0 24 24" fill="none" xmlns="http://www.w3.org/2000/svg">
<path fill-rule="evenodd" clip-rule="evenodd" d="M8.97156 5.34822C9.32695 3.96614 10.573 3 12 3C13.427 3 14.673 3.96614 15.0284 5.34822L15.7103 8H8.28967L8.97156 5.34822ZM6.22461 8L7.03458 4.85014C7.61728 2.58408 9.66023 1 12 1C14.3398 1 16.3827 2.58408 16.9654 4.85014L17.7754 8H21L23 22H1L3 8H6.22461ZM9 13.0002V13L9.00016 12.0002L7.00016 11.9998L7 12.9998V13C7 16.1324 9.5314 18 12 18C14.4977 18 17 16.1054 17 12.8333V12H15V12.8333C15 14.8946 13.5023 16 12 16C10.4686 16 9.00008 14.8677 9 13.0002Z" fill="#18141F"/>
</svg>
