<svg width="24" height="24" viewBox="0 0 24 24" fill="none" xmlns="http://www.w3.org/2000/svg">
<path fill-rule="evenodd" clip-rule="evenodd" d="M1.29297 2.70706L21.293 22.7071L22.7072 21.2928L20 18.5857V5C20 3.89543 19.1046 3 18 3H10C8.89543 3 8 3.89543 8 5V6.58566L2.70718 1.29285L1.29297 2.70706ZM10.4143 9L13 11.5857V11C13 9.89543 12.1046 9 11 9H10.4143ZM15 13.5857L18 16.5857V5H10V7H11C13.2091 7 15 8.79086 15 11V13.5857ZM3 11C3 10.0911 3.30311 9.25309 3.81376 8.5814L5.25478 10.0224C5.09253 10.3115 5 10.6449 5 11V12H7.23235L9.23235 14H3V11ZM12 20L11.1919 15.9596L13.7295 18.4971L13.9612 19.6078L12 20ZM4.03884 19.6078L4.99984 15L6.99998 14.9999L6 20L4.03884 19.6078ZM8 15V20H10V15H8Z" fill="#18141F"/>
</svg>
