<svg width="24" height="24" viewBox="0 0 24 24" fill="none" xmlns="http://www.w3.org/2000/svg">
<path fill-rule="evenodd" clip-rule="evenodd" d="M10.833 4.08451L12 0L13.167 4.08451C12.7861 4.02883 12.3964 4 12 4C11.6036 4 11.2139 4.02883 10.833 4.08451ZM7.22863 5.57801L3.51472 3.51472L5.57801 7.22863C6.04482 6.60136 6.60136 6.04482 7.22863 5.57801ZM4.08451 10.833L0 12L4.08451 13.167C4.02883 12.7861 4 12.3964 4 12C4 11.6036 4.02883 11.2139 4.08451 10.833ZM5.57801 16.7714L3.51472 20.4853L7.22863 18.422C6.60136 17.9552 6.04482 17.3986 5.57801 16.7714ZM10.833 19.9155L12 24L13.167 19.9155C12.7861 19.9712 12.3964 20 12 20C11.6036 20 11.2139 19.9712 10.833 19.9155ZM16.7714 18.422L20.4853 20.4853L18.422 16.7714C17.9552 17.3986 17.3986 17.9552 16.7714 18.422ZM19.9155 13.167L24 12L19.9155 10.833C19.9712 11.2139 20 11.6036 20 12C20 12.3964 19.9712 12.7861 19.9155 13.167ZM18.422 7.22863L20.4853 3.51472L16.7714 5.57801C17.3986 6.04482 17.9552 6.60136 18.422 7.22863Z" fill="#18141F"/>
<circle cx="12" cy="12" r="6" fill="#18141F"/>
</svg>
