<svg width="24" height="24" viewBox="0 0 24 24" fill="none" xmlns="http://www.w3.org/2000/svg">
<path fill-rule="evenodd" clip-rule="evenodd" d="M7.70711 13.1213L19.4142 1.41421L18 0L13 5H12.9999L10.9999 7H11L7.70711 10.2929L3.41421 6L3.41409 6.00012L3.41403 6.00006L2.41408 7H2.41421L2 7.41421L5.58579 11H5.58554L7.58554 13H7.58579L7.70711 13.1213ZM5.2424 5H10.1714L8.17144 7H7.2424L5.2424 5ZM2 11H2.75712L4.75712 13H2V11ZM22 13H10.6567L12.6567 11H22V13ZM22 7H16.6567L18.6567 5H22V7ZM2 19H22V17H2V19Z" fill="#061A3C"/>
</svg>
