<svg width="24" height="24" viewBox="0 0 24 24" fill="none" xmlns="http://www.w3.org/2000/svg">
<path fill-rule="evenodd" clip-rule="evenodd" d="M17.0001 6C17.0001 3.23858 14.7615 1 12.0001 1C9.58112 1 7.56337 2.71776 7.1001 5L9 5.5C9.23804 4.08114 10.5136 3 12.0001 3C13.6569 3 15.0001 4.34315 15.0001 6V8H6H4V10V20V22H6H18H20V20V10V8H18H17.0001V6ZM18 10H6V20H18V10ZM14 14C14 15.1046 13.1046 16 12 16C10.8954 16 10 15.1046 10 14C10 12.8954 10.8954 12 12 12C13.1046 12 14 12.8954 14 14Z" fill="#061A3C"/>
</svg>
