<svg width="24" height="24" viewBox="0 0 24 24" fill="none" xmlns="http://www.w3.org/2000/svg">
<path d="M23 11.7119C23 17.6309 18.1548 22.4238 12.1833 22.4238C10.2976 22.4238 8.51666 21.9262 6.97142 21.0881L1 23L2.96429 17.2381C1.96905 15.6143 1.39286 13.7286 1.39286 11.7119C1.39286 5.79285 6.2381 1 12.1833 1C18.1548 1 23 5.79285 23 11.7119ZM12.1833 2.70238C7.18096 2.70238 3.12143 6.73571 3.12143 11.7119C3.12143 13.6762 3.7762 15.5095 4.85001 16.9762L3.69761 20.3286L7.20715 19.2286C8.62144 20.1714 10.35 20.7214 12.1833 20.7214C17.2119 20.7214 21.2714 16.6881 21.2714 11.7119C21.2714 6.73571 17.2119 2.70238 12.1833 2.70238ZM17.6571 14.1738C17.5786 14.069 17.3952 13.9905 17.1333 13.8595C16.8714 13.7286 15.5881 13.1262 15.3262 13.0214C15.0905 12.9429 14.9071 12.8905 14.75 13.1524C14.5667 13.4143 14.0691 13.9905 13.8857 14.1738C13.7286 14.3571 13.5714 14.3571 13.3095 14.2262C13.0476 14.0952 12.2095 13.8333 11.2143 12.9429C10.4024 12.2357 9.87856 11.3714 9.72142 11.1095C9.56428 10.8476 9.69523 10.7167 9.85237 10.5857C9.95713 10.481 10.1143 10.2714 10.2452 10.1143C10.3762 9.98333 10.4024 9.85239 10.5071 9.69525C10.5857 9.51191 10.5333 9.35476 10.481 9.22381C10.4024 9.09285 9.87858 7.80953 9.66905 7.28571C9.43334 6.76191 9.2238 6.84047 9.06666 6.84047C8.90952 6.84047 8.75238 6.81429 8.56904 6.81429C8.38571 6.81429 8.09763 6.89286 7.86191 7.15476C7.6262 7.41667 6.94525 8.07142 6.94525 9.32856C6.94525 10.6381 7.88809 11.8952 8.01904 12.0524C8.14999 12.2357 9.85238 14.9595 12.5238 16.0071C15.2214 17.0809 15.2214 16.7143 15.7191 16.6881C16.1905 16.6357 17.2643 16.0333 17.5 15.431C17.7095 14.8024 17.7095 14.2786 17.6571 14.1738Z" fill="#061A3C"/>
</svg>
