<svg width="24" height="24" viewBox="0 0 24 24" fill="none" xmlns="http://www.w3.org/2000/svg">
<path fill-rule="evenodd" clip-rule="evenodd" d="M7.99996 11.016L1 15.0574L4.71823 21.4976L11.4737 17.5973C12.7608 18.4821 14.3199 19 15.9999 19C18.9611 19 21.5464 17.3912 22.9297 15C23.2878 14.381 23.5653 13.7095 23.7479 13L17 13L15.5 11L17.0086 9H23.7479C23.5653 8.29046 23.2878 7.61901 22.9297 7C21.5464 4.60879 18.9611 3 15.9999 3C11.5817 3 7.99994 6.58172 7.99994 11L7.99996 11.016ZM20.4726 7H16.012L12.9974 10.9966L16 15L20.4726 15C19.3733 16.2278 17.7758 17 15.9999 17C14.7372 17 13.5711 16.6121 12.6066 15.9492L11.5666 15.2343L5.45028 18.7655L3.73205 15.7895L10.0011 12.17L9.99994 11C9.99994 11.0003 9.99994 10.9997 9.99994 11C10.0004 7.68671 12.6865 5 15.9999 5C17.7758 5 19.3733 5.77224 20.4726 7Z" fill="#061A3C"/>
</svg>
