<svg xmlns="http://www.w3.org/2000/svg" viewBox="0 0 48 48"><defs><style>.cls-1{fill:#ffce00;}.cls-2{fill:none;stroke:#061a3c;stroke-linecap:round;stroke-miterlimit:10;stroke-width:2px;}.cls-3{fill:#ff5100;}</style></defs><title>paint-bucket</title><g id="Calque_1" data-name="Calque 1"><path class="cls-1" d="M40.69,10.57c0-2.34-4.84-5.45-16.95-5.45S6.79,8.23,6.79,10.57a5.82,5.82,0,0,0,0,.6h0v32.7a100.28,100.28,0,0,0,33.9,0V11.17h-.1A2.09,2.09,0,0,0,40.69,10.57Z"/><path class="cls-2" d="M20.31,23.18c.1.19-.12.6,0,.88s.39.38.53.64.36.39.49.64.2.49.34.73,0,.62.14.86.3.44.46.67.57.25.73.47.14.56.31.77.42.36.6.56.39.37.58.56.34.42.54.6.33.44.54.61.49.26.71.42.34.47.56.61.6.07.83.2.56.06.81.17.4.4.66.49.5.2.76.27.51.18.77.23a7.06,7.06,0,0,0,.79.21c.27,0,.54.06.82.07s.54,0,.81,0,.52-.2.79-.23.56.16.83.12.5-.27.77-.33.58.11.84,0,.48-.3.74-.39.58,0,.83-.13.43-.39.67-.5.52-.21.75-.34.4-.4.61-.55.39-.39.59-.56a6.57,6.57,0,0,0,.66-.48c.19-.2.2-.53.36-.75a5.74,5.74,0,0,0,.43-.66c.14-.24.62-.28.74-.53s.24-.5.33-.76.12-.54.19-.8-.06-.58,0-.84.14-.53.17-.8-.17-.55-.16-.82.21-.53.2-.8-.22-.53-.23-.8.1-.54.07-.81-.11-.53-.16-.8.24-.6.19-.86-.26-.51-.33-.77-.17-.52-.24-.78-.12-.53-.2-.79-.25-.49-.34-.74-.09-.56-.18-.8-.48-.41-.57-.65-.2-.52-.3-.75.12-.67,0-.89-.45-.45-.54-.64"/><path class="cls-3" d="M34.49,14.12H32.22c3.66-.66,6.05-1.73,6.05-2.95,0-2-6.51-3.63-14.53-3.63S9.21,9.17,9.21,11.17s6.5,3.63,14.53,3.63A51.34,51.34,0,0,0,31,14.32v3.3a3.5,3.5,0,1,0,3.5-3.5Z"/></g></svg>