<svg xmlns="http://www.w3.org/2000/svg" viewBox="0 0 52 49"><defs><style>.cls-1{fill:#ffce00;}.cls-2{fill:#fff3bf;}.cls-3{fill:none;stroke:#061a3c;stroke-linecap:round;stroke-miterlimit:10;stroke-width:2px;}.cls-4{fill:#ff5100;}</style></defs><title>sun-inlove</title><g id="Calque_1" data-name="Calque 1"><ellipse class="cls-1" cx="26.48" cy="26.12" rx="16.41" ry="16.07"/><path class="cls-2" d="M5.16,21.63a17.28,17.28,0,0,1,9.26-11.15C9.17,11.09,3.08,15,1.58,20.86S3.63,32.72,7.93,35.77A17.09,17.09,0,0,1,5.16,21.63Z"/><path class="cls-2" d="M28.37,6.57a24.71,24.71,0,0,1,9,4.17S36.56,5,28.67,3.35c-5.93-1.2-11.18-.25-15.27,2.9C13.4,6.25,21.52,4.9,28.37,6.57Z"/><path class="cls-2" d="M43.51,38.28c-2.66,5-5.87,6-8.17,7.67,0,0,7.44.27,10.73-5.73a15.66,15.66,0,0,0,.31-14.44S46.42,32.82,43.51,38.28Z"/><path class="cls-2" d="M15.33,43.08c-2.73-1.91-5.55-5-5.66-7.79a9.54,9.54,0,0,0,3.53,9.78c3,2.11,8.73,2.56,11.53.56C22,46.51,18.07,45,15.33,43.08Z"/><path class="cls-2" d="M46.18,15.47c1.51,2.67,2.77,6.19,2.69,8.74,1-2.9,1.47-6.55-.2-9.5s-8.91-6.12-8.91-6.12S44.67,12.8,46.18,15.47Z"/><path class="cls-3" d="M17.8,28.21c0,.22.23.49.36.8a5.4,5.4,0,0,0,.4.72c.14.22.41.35.59.58s.36.39.56.59.32.45.53.63.5.24.72.4.27.61.51.75.6,0,.86.15.39.52.65.61a7.65,7.65,0,0,0,.83.18c.27.07.58-.1.86-.06a7.39,7.39,0,0,0,.82.14c.29,0,.57.23.84.22s.55-.25.82-.27.53-.25.79-.3.61.16.87.09.49-.3.74-.4.55-.13.79-.25a7.1,7.1,0,0,0,.81-.3c.22-.16.47-.33.68-.51s.12-.67.31-.87.31-.43.48-.65.57-.26.72-.49.28-.47.43-.72,0-.59.18-.84"/><path class="cls-4" d="M17.42,25.79c4-1.6,8-6.66,8-10.34,0-2.86-1.67-3.73-3.73-3.73a3.73,3.73,0,0,0-3.73,3.73,3.73,3.73,0,0,0-7.46,0c0,1.81.37,6.19,6.49,10.06Z"/><path class="cls-4" d="M35.31,25.79c4-1.6,8-6.66,8-10.34,0-2.86-1.67-3.73-3.74-3.73a3.73,3.73,0,0,0-3.73,3.73,3.73,3.73,0,0,0-7.46,0c0,1.81.37,6.19,6.5,10.06Z"/></g></svg>